<?xml version="1.0" encoding="utf-8"?>
<!-- Generator: Adobe Illustrator 27.5.0, SVG Export Plug-In . SVG Version: 6.00 Build 0)  -->
<svg version="1.1" xmlns="http://www.w3.org/2000/svg" xmlns:xlink="http://www.w3.org/1999/xlink" x="0px" y="0px"
	 viewBox="0 0 500 500" style="enable-background:new 0 0 500 500;" xml:space="preserve">
<g id="BACKGROUND">
	<rect style="fill:#F4E0EA;" width="500" height="500"/>
</g>
<g id="OBJECTS">
	<ellipse style="fill:#E6B7BC;" cx="254.996" cy="438.596" rx="113.758" ry="16.457"/>
	<g>
		<path style="fill:#8E5549;" d="M168.884,246.155c-1.268,1.376-40.326,82.879-7.774,134.088
			c32.552,51.209,138.981,41.127,162.026,21.644c23.045-19.483,33.228-51.244,21.886-80.361
			c-11.342-29.117-51.207-75.613-54.311-75.927C287.609,245.284,168.884,246.155,168.884,246.155z"/>
		<path style="fill:#8E5549;" d="M176.785,246.199c-1.308,0.485-25.985,80.758-3.554,117.964s152.222,11.675,152.222,11.675
			s22.303-32.525,6.498-82.753c0,0,7.314-32.023,6.799-34.213c-0.515-2.19-7.102-27.568-7.102-27.568L176.785,246.199z"/>
		<path style="fill:#8E5549;" d="M199.095,82.91c0,0-16.454-35.1-43.569-15.209c-25.731,18.876-4.232,53.387,15.702,54.109
			L199.095,82.91z"/>
		<path style="fill:#8E5549;" d="M172.71,95.47c24.098-25.229,107.389-44.198,143.971-4.374
			c36.582,39.824,63.633,128.155,13.736,157.043c-49.898,28.888-157.25,20.881-179.882-15.394
			C127.904,196.469,152.019,117.133,172.71,95.47z"/>
		<path style="fill:#F0CB6A;" d="M217.559,257.646c0,0-56.136,37.955-36.107,108.02c4.999,17.487,72.134,45.253,91.429,41.517
			c19.295-3.736,60.643-47.491,49.185-112.872c0,0-19.109-30.256-21.372-31.946s-46.205-9.046-49.306-9.383
			C248.287,252.644,217.559,257.646,217.559,257.646z"/>
		<path style="fill:#DB903F;" d="M222.063,261.602c0,0-51.027,34.5-32.82,98.188c4.544,15.896,65.568,41.133,83.107,37.738
			c17.539-3.396,55.123-43.168,44.708-102.597c0,0-17.37-27.502-19.427-29.038c-2.057-1.536-41.999-8.223-44.818-8.529
			C249.994,257.056,222.063,261.602,222.063,261.602z"/>
		<path style="fill:#A4A6A6;" d="M243.225,240.463c3.1-6.402-0.002-13.241,9.594-16.652s65.237,10.616,70.514,23.238
			c5.278,12.623-3.981,12.933-3.259,21.295c0.682,7.911,10.341,23.028,8.058,29.743c-2.283,6.715-17.928,5.014-23.881-1.407
			s-6.204-13.916-17.048-8.257c-10.845,5.659-22.263,7.366-31.083-5.58c-8.82-12.946-12.038-16.81-25.235-15.486
			c-13.197,1.325-19.492-4.371-17.285-15.311C217.007,235.161,239.097,248.987,243.225,240.463z"/>
		<path style="fill:#8E5549;" d="M194.829,272.469c0,0,18.373,31.921,36.873,41.23c12.972,6.528,15.242,28.532-0.403,37.431
			c-15.645,8.899-54.456-3.63-64.37-46.324c-9.914-42.694,19.21-59.51,19.21-59.51L194.829,272.469z"/>
		<path style="fill:#8E5549;" d="M332.514,280.724c0,0,3.851,10.855-16.473,23.002c-20.324,12.147-13.876,40.723,2.186,41.687
			c16.061,0.963,55.564-18.995,42.995-59.825c-12.569-40.83-31.93-44.744-31.93-44.744L332.514,280.724z"/>
		<path style="fill:#F1D09D;" d="M185.153,91.01c-3.02,3.187-8.149,8.843-12.182,14.537c-1.899,2.681-5.671,3.193-8.178,1.07
			c-5.825-4.934-13.457-14.407-4.656-25.644c9.391-11.99,20.988-3.834,25.603,3.095C187.186,86.239,186.947,89.117,185.153,91.01z"
			/>
		<path style="fill:#8E5549;" d="M304.982,88.393c0,0,16.322-33.154,41.802-13.703c24.181,18.46,3.061,50.96-15.951,51.285
			L304.982,88.393z"/>
		<path style="fill:#F1D09D;" d="M318.123,96.367c2.82,3.092,7.606,8.576,11.346,14.077c1.761,2.59,5.347,3.146,7.774,1.168
			c5.642-4.596,13.088-13.486,4.904-24.356c-8.732-11.598-19.933-4.036-24.458,2.484C316.272,91.782,316.447,94.53,318.123,96.367z"
			/>
		<path style="fill:#57362D;" d="M360.114,313.39c-1.927,4.174-4.378,8.284-7.064,12.015c-2.715,3.772-5.837,7.18-9.47,10.087
			c-6.963,5.572-16.226,10.188-25.385,8.87c-4.667-0.671-8.561-3.255-10.616-7.557c-2.062-4.316-2.57-9.459-2.47-14.192
			c0.049-2.327,0.296-4.723,1.149-6.905c0.944-2.413,2.592-4.131,4.788-5.473c2.165-1.323,4.475-2.378,6.609-3.761
			c1.999-1.296,3.925-2.749,5.673-4.371c3.79-3.517,6.963-7.785,9.157-12.47c2.116-4.519,3.619-9.92,2.773-14.926
			c-0.096-0.567-0.957-0.606-1.034-0.005c-0.633,4.933-1.558,9.573-3.904,14.017c-2.27,4.299-5.467,7.981-9.104,11.174
			c-1.837,1.612-3.788,3.085-5.862,4.381c-2.28,1.425-4.781,2.468-7.015,3.969c-4.574,3.074-6.204,8.318-6.38,13.599
			c-0.17,5.106,0.279,10.55,2.251,15.312c1.962,4.736,5.712,8.35,10.666,9.794c4.847,1.413,10.107,0.984,14.944-0.266
			c4.856-1.254,9.592-3.21,13.785-5.979c4.607-3.043,8.833-6.994,11.961-11.564c1.591-2.325,2.992-4.766,4.005-7.397
			c0.992-2.578,1.516-5.262,1.8-8.004C361.446,312.995,360.43,312.707,360.114,313.39z"/>
		<path style="fill:#8E5549;" d="M166.957,378.094c0,0-4.588,49.855,0.998,56.911c5.586,7.057,33.043,14.545,46.104,10.039
			c13.061-4.506,19.308-29.926,19.308-29.926L166.957,378.094z"/>
		<path style="fill:#8E5549;" d="M342.899,368.523c0,0,11.359,48.76,6.79,56.514s-30.745,18.925-44.299,16.246
			c-13.554-2.679-23.217-27.006-23.217-27.006L342.899,368.523z"/>
		<path style="fill:#8E5549;" d="M152.26,335.936c0,0-33.811-0.355-27.487,27.367c6.324,27.722,32.361,26.513,40.629,13.895
			C173.669,364.58,152.26,335.936,152.26,335.936z"/>
		<path style="fill:#57362D;" d="M240.357,322.764c-2.896-7.105-8.083-12.316-14.184-16.779c-3.139-2.296-6.308-4.532-9.21-7.131
			c-2.755-2.467-5.325-5.154-7.68-8.006c-4.772-5.779-8.974-11.995-12.734-18.472c-0.939-1.617-2.04-3.12-3.107-4.655
			c-0.401-0.577-1.406-0.168-1.152,0.542c2.393,6.681,6.102,12.931,10.045,18.817c3.953,5.901,8.756,11.362,14.195,15.936
			c5.588,4.7,12.191,8.304,16.616,14.258c3.863,5.198,6.414,11.822,5.585,18.38c-0.737,5.827-4.08,11.326-9.14,14.382
			c-6.196,3.741-13.497,1.91-19.93-0.216c-12.575-4.155-24.063-12.024-32.441-22.287c-4.538-5.559-8.233-11.811-10.893-18.477
			c-1.332-3.336-2.419-6.77-3.25-10.264c-0.831-3.493-1.273-7.02-1.731-10.575c-0.229-1.776-0.667-3.518-1.019-5.274
			c-0.161-0.804-1.441-0.696-1.58,0.065c-0.334,1.823-0.627,3.677-0.569,5.534c0.059,1.892,0.316,3.773,0.612,5.641
			c0.597,3.761,1.453,7.477,2.606,11.107c2.293,7.224,5.69,14.139,10.059,20.335c8.131,11.529,19.647,20.659,32.72,25.964
			c6.863,2.785,14.969,5.556,22.391,3.612c6.197-1.624,11.277-6.573,13.839-12.347C243.24,336.463,242.976,329.191,240.357,322.764z
			"/>
		<path style="fill:#57362D;" d="M210.114,256.976c-1.141-0.766-3.188-0.421-4.503-0.48c-5.816-0.263-11.6-1.088-17.259-2.453
			c-3.098-0.747-6.159-1.653-9.166-2.71c-3.134-1.101-6.118-2.563-9.233-3.692c-1.15-0.417-1.823,1.276-0.848,1.906
			c2.396,1.551,5.137,2.646,7.776,3.723c2.697,1.1,5.446,2.069,8.238,2.9c5.581,1.662,11.318,2.78,17.111,3.364
			c1.38,0.139,2.762,0.247,4.147,0.323c1.297,0.071,3.394,0.493,4.244-0.783C211.112,258.336,210.84,257.463,210.114,256.976z"/>
		<path style="fill:#57362D;" d="M335.45,243.905c-0.395,0.092-0.791,0.173-1.191,0.245c-0.604,0.108-1.124,0.422-1.652,0.726
			c-0.74,0.427-1.489,0.827-2.276,1.161c-1.729,0.735-3.557,1.172-5.357,1.685c-1.139,0.324-0.731,1.907,0.345,1.949
			c2.048,0.081,4.082-0.445,5.997-1.151c0.964-0.355,1.913-0.774,2.822-1.254c0.562-0.296,1.064-0.647,1.432-1.171
			c0.263-0.375,0.511-0.759,0.748-1.151C336.675,244.354,336.025,243.771,335.45,243.905z"/>
		<path style="fill:#F1D09D;" d="M259.215,154.324c-14.621,2.575-24.089,21.305-21.472,35.072
			c2.68,14.103,15.357,20.194,28.639,19.344c15.996-1.024,21.037-16.104,20.227-30.176
			C285.775,164.089,274.581,151.618,259.215,154.324z"/>
		<path style="fill:#D88579;" d="M344.042,170.044c0.306,7.495-8.304,13.933-19.231,14.379
			c-10.927,0.446-20.033-5.269-20.339-12.764c-0.306-7.495,8.304-13.933,19.231-14.379
			C334.63,156.834,343.736,162.549,344.042,170.044z"/>
		
			<ellipse transform="matrix(0.9992 -0.0408 0.0408 0.9992 -7.4555 8.3712)" style="fill:#D88579;" cx="201.534" cy="186.995" rx="21.799" ry="15.601"/>
		<path style="fill:#CB4F4F;" d="M246.081,309.311c-1.154,2.773-5.231,3.713-9.105,2.099c-3.874-1.613-6.079-5.169-4.925-7.941
			c1.154-2.773,5.231-3.713,9.105-2.099C245.031,302.983,247.236,306.538,246.081,309.311z"/>
		<path style="fill:#CB4F4F;" d="M296.59,328.476c-1.155,2.773-5.231,3.713-9.105,2.099s-6.079-5.169-4.925-7.941
			c1.155-2.773,5.231-3.713,9.105-2.099C295.54,322.148,297.745,325.703,296.59,328.476z"/>
		<path style="fill:#CE5E57;" d="M256.18,181.005c0,0,2.986,8.266,9.562,7.115c6.575-1.151,6.234-9.526,6.234-9.526
			s-4.765-3.172-5.921-4.449c-1.156-1.277-1.156-1.277-1.156-1.277l-1.98,4.22l-2.819,2.598L256.18,181.005z"/>
		<path style="fill:#31161A;" d="M256.204,159.174c1.836,0.048,5.38,0.967,6.816,2.329c0.135,0.036,0.252,0.072,0.357,0.107
			c0.887-0.948,2.092-1.784,3.088-2.577c2.875-2.288,8.112,1.014,5.445,4.402c-2.113,2.685-4.661,7.015-8.549,6.903
			c-3.298-0.096-7.921-2.051-10.245-4.277C250.489,163.545,252.772,159.085,256.204,159.174z"/>
		<path style="fill:#31161A;" d="M275.012,171.296c-0.786,0.145-1.028,0.907-1.035,1.604c-0.008,0.783,0.091,1.346-0.321,2.068
			c-0.742,1.301-2.169,1.819-3.579,1.395c-4.408-1.326-4.535-7.042-4.526-10.757c0.004-1.807-2.697-2.249-2.868-0.352
			c-0.208,2.317-0.415,4.633-0.624,6.95c-0.167,1.852-0.212,4.033-1.592,5.453c-1.181,1.215-3.047,1.787-4.673,1.256
			c-1.787-0.584-2.681-2.152-3.464-3.732c-0.363-0.732-1.541-0.631-1.633,0.242c-0.247,2.35,1.423,4.465,3.388,5.555
			c2.105,1.167,4.744,1.118,6.834-0.074c2.096-1.195,3.194-3.225,3.654-5.507c0.23,0.369,0.483,0.728,0.773,1.071
			c2.127,2.523,5.797,3.977,8.802,2.07c1.334-0.847,2.34-2.227,2.679-3.776C277.088,173.569,276.86,170.956,275.012,171.296z"/>
		<path style="fill:#31161A;" d="M224.292,140.371c-8.98,1.102-10.303,10.997-10.669,19c-0.301-0.282-0.602-0.572-0.91-0.873
			c-1.81-1.761-4.955,0.032-3.808,2.513c1.252,2.706,3.247,4.535,5.778,6.063c1.905,1.15,4.193,0.078,4.502-2.133
			c0.622-4.453,0.275-14.897,4.865-17.137c6.334-3.09,11.112,8.948,11.98,13.539c0.801,4.232,6.984,2.982,6.512-1.214
			C241.617,151.897,234.12,139.165,224.292,140.371z"/>
		<path style="fill:#31161A;" d="M291.735,132.806c8.978-1.122,12.674,8.152,14.982,15.824c0.223-0.347,0.444-0.702,0.67-1.069
			c1.325-2.149,4.814-1.177,4.306,1.508c-0.554,2.929-2.043,5.19-4.124,7.289c-1.567,1.58-4.047,1.098-4.886-0.97
			c-1.69-4.167-3.901-14.38-8.898-15.432c-6.897-1.452-8.594,11.388-8.316,16.052c0.256,4.299-6.045,4.596-6.612,0.411
			C277.745,148.21,281.91,134.034,291.735,132.806z"/>
		<path style="fill:#57362D;" d="M167.956,385.846c-9.117-12.974-14.898-27.803-17.626-43.387c-0.384-2.193-0.654-4.396-0.921-6.606
			c-0.128-1.058-0.266-2.115-0.384-3.174c-0.059-0.53-0.147-1.049-0.238-1.575c-0.111-0.643-0.471-1.383-0.553-1.992
			c-0.031-0.229-0.334-0.221-0.357,0.008c-0.053,0.545-0.348,1.042-0.403,1.603c-0.046,0.465-0.105,0.93-0.13,1.397
			c-0.053,0.99-0.012,1.994,0.011,2.985c0.046,2.05,0.26,4.104,0.494,6.14c0.46,4.002,1.194,7.955,2.167,11.864
			c1.937,7.783,4.775,15.33,8.459,22.454c2.104,4.07,4.486,7.989,7.113,11.742C166.608,388.763,168.988,387.316,167.956,385.846z"/>
		<path style="fill:#57362D;" d="M295.303,408.68c-2.44,0.239-4.661,1.084-6.942,1.917c-2.268,0.827-4.544,1.609-6.87,2.258
			c-4.709,1.315-9.529,2.19-14.392,2.671c-9.905,0.979-19.902,0.393-29.727-1.083c-2.701-0.406-5.391-0.888-8.066-1.438
			c-2.708-0.557-5.433-1.313-8.205-1.325c-0.526-0.002-0.671,0.718-0.239,0.969c2.172,1.263,4.66,1.877,7.092,2.466
			c2.456,0.595,4.925,1.133,7.407,1.606c5.027,0.959,10.097,1.626,15.203,1.966c10.02,0.666,20.171,0.069,29.949-2.303
			c2.72-0.66,5.417-1.449,8.045-2.412c2.656-0.973,5.252-2.106,7.224-4.206C296.139,409.384,295.876,408.624,295.303,408.68z"/>
		<path style="fill:#57362D;" d="M351.128,336.305c-0.29-1.604-1.277-4.046-3.304-3.879c-0.364,0.03-0.611,0.291-0.627,0.656
			c-0.064,1.412,0.764,2.823,0.962,4.219c0.244,1.716,0.185,3.495,0.204,5.223c0.044,4.022-0.027,8.061-0.418,12.067
			c-0.676,6.928-2.534,13.909-6.349,19.795c-0.994,1.534-2.127,2.971-3.393,4.289c-0.646,0.673-1.32,1.326-1.996,1.969
			c-0.592,0.563-1.151,0.972-1.175,1.851c-0.007,0.261,0.201,0.477,0.437,0.547c1.411,0.424,3.048-1.319,3.99-2.194
			c1.287-1.196,2.457-2.515,3.514-3.918c2.182-2.896,3.869-6.079,5.174-9.457c3.031-7.843,3.48-16.483,3.358-24.804
			C351.475,340.55,351.507,338.398,351.128,336.305z"/>
		<path style="fill:#57362D;" d="M189.872,436.873c-0.019-0.491-0.085-0.984-0.13-1.474c-0.035-0.389-0.061-0.791-0.185-1.161
			c-0.077-0.231-0.179-0.456-0.268-0.682c-0.247-0.627-0.708-1.078-1.403-1.155c-0.624-0.069-1.345,0.234-1.633,0.828
			c-0.27,0.556-0.533,1.09-0.636,1.706c-0.093,0.556-0.201,1.112-0.263,1.672c-0.12,1.072-0.233,2.182-0.156,3.258
			c0.07,0.97,0.716,1.959,1.726,2.165c0.404,0.082,0.815,0.073,1.214-0.027c0.593-0.149,1.013-0.6,1.342-1.081
			c0.022-0.032,0.044-0.064,0.066-0.096c0.201-0.294,0.288-0.786,0.28-1.135c-0.002-0.101-0.017-0.199-0.033-0.297
			C189.868,438.557,189.905,437.712,189.872,436.873z"/>
		<path style="fill:#57362D;" d="M202.57,440.006c-0.071-0.774-0.127-1.546-0.266-2.312c-0.107-0.596-0.184-1.233-0.384-1.806
			c-0.136-0.39-0.321-0.773-0.492-1.147c-0.055-0.12-0.106-0.246-0.169-0.363c-0.068-0.141-0.158-0.265-0.272-0.375
			c-0.304-0.198-0.362-0.249-0.175-0.153c-0.478-0.493-1.421-0.363-1.727,0.262c0.151-0.147,0.111-0.081-0.121,0.198
			c-0.073,0.141-0.125,0.289-0.154,0.444c-0.032,0.133-0.055,0.269-0.085,0.402c-0.072,0.316-0.176,0.627-0.239,0.945
			c-0.125,0.623-0.216,1.268-0.309,1.897c-0.117,0.794-0.162,1.605-0.237,2.404c-0.047,0.507,0.034,0.982,0.132,1.482
			c0.143,0.726,0.596,1.216,1.191,1.614c0.419,0.28,1.176,0.341,1.644,0.178c0.549-0.191,0.923-0.525,1.249-1.006
			C202.662,441.921,202.649,440.864,202.57,440.006z"/>
		<path style="fill:#57362D;" d="M214.262,438.854c-0.096-0.597-0.186-1.198-0.41-1.761c-0.148-0.374-0.282-0.771-0.519-1.096
			c-0.21-0.287-0.444-0.557-0.673-0.829c-0.637-0.754-1.856-0.231-2.083,0.6c-0.078,0.285-0.179,0.568-0.245,0.856
			c-0.095,0.415-0.086,0.878-0.128,1.303c0.019-0.17,0.038-0.34,0.057-0.51c-0.11,0.953-0.063,1.916-0.15,2.873
			c-0.108,1.191-0.113,2.376,0.732,3.322c0.416,0.466,1.324,0.707,1.909,0.459c0.602-0.256,1.111-0.59,1.365-1.214
			c0.209-0.514,0.313-0.797,0.351-1.352c0.009-0.131,0.013-0.263,0.017-0.394C214.51,440.349,214.383,439.607,214.262,438.854z"/>
		<path style="fill:#57362D;" d="M326.331,433.024l0.005,0.005c-0.002-0.013-0.009-0.029-0.012-0.044
			c-0.001-0.005-0.003-0.011-0.004-0.016c-0.023-0.106-0.058-0.218-0.103-0.333c-0.02-0.081-0.051-0.156-0.093-0.227
			c-0.097-0.212-0.21-0.421-0.306-0.599c-0.145-0.267-0.35-0.513-0.524-0.762c-0.354-0.505-0.709-1.011-1.063-1.516
			c-0.402-0.574-0.886-1.093-1.341-1.625c-0.192-0.224-0.377-0.456-0.576-0.673c-0.2-0.218-0.444-0.386-0.677-0.567
			c-0.3-0.232-0.651-0.339-1.017-0.169c-0.317,0.148-0.581,0.49-0.551,0.86c0.029,0.344,0.045,0.694,0.119,1.032
			c0.063,0.292,0.172,0.582,0.257,0.869c0.177,0.598,0.328,1.212,0.563,1.79c0.228,0.562,0.456,1.124,0.684,1.686
			c0.332,0.818,0.655,1.717,1.327,2.328c0.605,0.55,1.459,0.703,2.207,0.367c0.704-0.316,1.242-1.067,1.196-1.867
			C326.409,433.362,326.376,433.191,326.331,433.024z"/>
		<path style="fill:#57362D;" d="M338.421,427.81l0.034,0.075c-0.025-0.056-0.046-0.114-0.069-0.171
			c-0.01-0.023-0.018-0.047-0.029-0.071c-0.089-0.228-0.176-0.457-0.317-0.661c-0.122-0.176-0.239-0.355-0.359-0.533
			c-0.325-0.483-0.727-0.899-1.121-1.325c-0.276-0.299-0.541-0.606-0.855-0.865c-0.253-0.209-0.511-0.459-0.798-0.611
			c-0.168-0.089-0.346-0.164-0.518-0.245c-0.475-0.225-0.996-0.251-1.457,0.033c-0.422,0.26-0.715,0.759-0.687,1.263
			c0.011,0.191,0.015,0.384,0.035,0.574c0.037,0.36,0.134,0.685,0.241,1.025c0.181,0.58,0.491,1.136,0.75,1.687
			c0.097,0.207,0.188,0.418,0.292,0.621c0.102,0.201,0.245,0.385,0.371,0.572c0.305,0.453,0.623,0.918,1.117,1.185
			c0.606,0.326,1.323,0.487,1.995,0.276c0.448-0.14,0.818-0.417,1.095-0.792c0.263-0.356,0.479-0.852,0.431-1.308
			C338.539,428.229,338.498,428.024,338.421,427.81z"/>
		<g>
			<path style="fill:#57362D;" d="M346.652,422.567c-0.161-0.58-0.482-1.166-0.802-1.681c-0.607-0.975-1.414-1.685-2.438-2.194
				c-0.45-0.224-0.967-0.194-1.364,0.127c-0.404,0.327-0.516,0.805-0.412,1.303c0.018,0.088,0.033,0.176,0.049,0.264
				c0.045,0.32,0.088,0.641,0.138,0.961c0.035,0.224,0.071,0.449,0.107,0.673c0.062,0.424,0.067,0.852,0.117,1.276
				c0.048,0.404,0.052,0.815,0.176,1.207c0.033,0.105,0.072,0.207,0.111,0.31c0.117,0.385,0.321,0.717,0.611,0.996
				c0.169,0.125,0.339,0.25,0.508,0.375c0.179,0.071,0.357,0.141,0.536,0.212c0.298,0.086,0.593,0.093,0.887,0.02
				c0.492-0.077,0.901-0.285,1.262-0.64c0.556-0.545,0.681-1.268,0.72-2.006C346.879,423.374,346.759,422.951,346.652,422.567z"/>
			<path style="fill:#31161A;" d="M341.831,421.404c-0.003-0.019-0.005-0.038-0.008-0.057c-0.022-0.139-0.046-0.279-0.066-0.418
				C341.781,421.087,341.806,421.245,341.831,421.404z"/>
		</g>
		<path style="fill:#57362D;" d="M235.667,333.078c-0.163-0.267-0.384-0.432-0.613-0.626c-0.37-0.314-0.787-0.542-1.192-0.804
			c-0.586-0.379-1.21-0.69-1.787-1.085c-0.278-0.19-0.563-0.362-0.848-0.541c-0.155-0.097-0.308-0.196-0.459-0.298
			c-0.113-0.076-0.321-0.173-0.405-0.283c0.001,0.001,0.002,0.002,0.003,0.003c-0.007-0.006-0.009-0.009-0.018-0.015
			c-0.068-0.052-0.136-0.105-0.204-0.157c-0.261-0.2-0.462-0.314-0.773-0.432c-0.02-0.008-0.03-0.011-0.042-0.016
			c-0.014-0.006-0.025-0.011-0.047-0.02c-0.073-0.031-0.146-0.061-0.219-0.092c-0.216-0.092-0.396-0.154-0.606-0.122
			c-0.06-0.032-0.12-0.063-0.179-0.095c-0.139-0.076-0.371,0.027-0.344,0.208c0.013,0.09,0.028,0.18,0.043,0.269
			c-0.062,0.134-0.1,0.271-0.084,0.447c0.019,0.211,0.067,0.426,0.105,0.635c0.08,0.44,0.29,0.798,0.525,1.171
			c0.432,0.686,0.911,1.399,1.49,1.968c0.6,0.59,1.254,1.187,1.966,1.639c0.951,0.603,2.22,1.195,3.297,0.548
			c0.411-0.246,0.78-0.806,0.711-1.307C235.935,333.707,235.862,333.397,235.667,333.078z"/>
		<g>
			<path style="fill:#57362D;" d="M232.141,341.66c-0.223-0.282-0.425-0.547-0.734-0.743c-0.129-0.082-0.272-0.144-0.407-0.216
				c-0.261-0.138-0.514-0.286-0.778-0.419c-0.25-0.126-0.495-0.263-0.732-0.411c-0.118-0.074-0.236-0.15-0.351-0.228
				c-0.008-0.005-0.035-0.022-0.066-0.041c0.019,0.014,0.038,0.028,0.057,0.042c-0.02-0.016-0.042-0.029-0.062-0.045
				c-0.054-0.034-0.115-0.074-0.128-0.093c-0.059-0.043-0.115-0.088-0.175-0.128c-0.107-0.072-0.213-0.144-0.319-0.217
				c-0.037-0.028-0.074-0.057-0.111-0.086c-0.231-0.183-0.441-0.388-0.666-0.578c-0.167-0.141-0.356-0.257-0.536-0.382
				c-0.004-0.003-0.028-0.02-0.053-0.038c-0.034-0.025-0.077-0.058-0.09-0.068c-0.254-0.197-0.468-0.398-0.741-0.513
				c0.011,0.003,0.022,0.006,0.034,0.008c-0.066-0.027-0.133-0.054-0.199-0.082c-0.37-0.156-0.875-0.04-0.965,0.418
				c-0.006,0.03-0.012,0.061-0.018,0.092c-0.015,0.066-0.001,0.043,0.042-0.068c-0.063,0.104-0.096,0.215-0.099,0.335
				c-0.014,0.064-0.017,0.128-0.008,0.193c0.017,0.202,0.072,0.407,0.121,0.604c0.071,0.283,0.152,0.566,0.257,0.837
				c0.288,0.741,0.868,1.416,1.383,2.007c0.472,0.541,1.108,0.985,1.694,1.386c0.261,0.178,0.526,0.312,0.818,0.432
				c0.257,0.106,0.53,0.231,0.8,0.311c0.395,0.117,0.774,0.034,1.164-0.037C232.185,343.767,232.716,342.388,232.141,341.66z"/>
			<path style="fill:#31161A;" d="M229.073,339.602c-0.046-0.034-0.093-0.069-0.139-0.103c0,0.001,0.005,0.005,0.006,0.006
				c0.043,0.031,0.086,0.061,0.128,0.093C229.07,339.6,229.071,339.601,229.073,339.602z"/>
		</g>
		<g>
			<path style="fill:#57362D;" d="M225.61,349.473c-0.026-0.031-0.047-0.056-0.056-0.066c-0.017-0.022-0.033-0.043-0.049-0.065
				c-0.104-0.14-0.209-0.28-0.327-0.408c-0.093-0.101-0.204-0.177-0.315-0.257c0.052,0.037,0.073,0.053,0.097,0.07
				c-0.021-0.015-0.043-0.032-0.058-0.043c-0.166-0.13-0.324-0.27-0.505-0.38c-0.111-0.067-0.222-0.131-0.331-0.202
				c-0.054-0.036-0.107-0.073-0.161-0.109c-0.064-0.044-0.061-0.039-0.036-0.02c-0.147-0.106-0.293-0.206-0.445-0.307
				c-0.043-0.028-0.084-0.057-0.126-0.086c-0.093-0.075-0.185-0.151-0.278-0.227c-0.126-0.105-0.493-0.418-0.155-0.119
				c-0.048-0.043-0.103-0.079-0.153-0.12c-0.2-0.16-0.39-0.333-0.568-0.516c-0.168-0.173-0.313-0.363-0.498-0.517
				c-0.192-0.16-0.372-0.332-0.541-0.516c-0.378-0.41-1.011-0.038-1.025,0.452c-0.007,0.258,0,0.515,0.028,0.772
				c0.047,0.424,0.199,0.76,0.385,1.143c0.281,0.58,0.647,1.107,1.113,1.554c0.475,0.456,1.009,0.814,1.618,1.063
				c0.478,0.195,1.008,0.27,1.518,0.175c0.266-0.049,0.518-0.176,0.762-0.287C225.906,350.274,225.839,349.74,225.61,349.473z"/>
			<path style="fill:#31161A;" d="M224.96,348.746C225.009,348.782,225.037,348.802,224.96,348.746L224.96,348.746z"/>
		</g>
		<path style="fill:#57362D;" d="M312.78,321.299c-1.082-0.195-2.083,0.371-3.091,0.681c-0.876,0.269-1.846,0.385-2.63,0.873
			c-0.568,0.353-0.534,1.184,0.034,1.516c0.897,0.523,2.077,0.464,3.081,0.339c0.537-0.067,1.108-0.124,1.624-0.297
			c0.234-0.079,0.467-0.164,0.694-0.259c0.485-0.201,0.822-0.506,1.119-0.937C314.076,322.539,313.565,321.44,312.78,321.299z"/>
		<path style="fill:#57362D;" d="M316.248,328.378c-0.255-0.224-0.559-0.354-0.903-0.35c-0.401,0.004-0.761,0.144-1.108,0.332
			c-0.086,0.047-0.174,0.09-0.263,0.132c-0.086,0.041-0.161,0.096-0.236,0.153c0.005-0.004,0.009-0.008,0.014-0.012
			c-0.016,0.013-0.034,0.022-0.05,0.035c-0.005,0.004-0.01,0.006-0.015,0.01c-0.246,0.185-0.503,0.336-0.769,0.491
			c-0.233,0.136-0.457,0.278-0.695,0.402c-0.372,0.138-0.757,0.229-1.09,0.454c-0.278,0.187-0.446,0.444-0.483,0.777
			c-0.033,0.299,0.051,0.68,0.308,0.874c0.285,0.215,0.521,0.386,0.885,0.435c0.283,0.039,0.57,0.072,0.857,0.078
			c0.193,0.004,0.387-0.004,0.58-0.025c0.301-0.032,0.625-0.056,0.913-0.152c0.459-0.154,0.935-0.402,1.335-0.682
			c0.592-0.414,1.212-1.298,1.112-2.066C316.595,328.935,316.511,328.609,316.248,328.378z"/>
		<path style="fill:#57362D;" d="M321.139,335.008c-0.155-0.336-0.694-0.437-0.981-0.234c-0.062,0.044-0.126,0.085-0.193,0.122
			c-0.006,0.003-0.012,0.006-0.019,0.01c-0.145,0.042-0.284,0.087-0.435,0.111c0.03-0.005,0.059-0.009,0.089-0.014
			c-0.186,0.034-0.348,0.082-0.549,0.206c-0.089,0.055-0.172,0.125-0.254,0.198c-0.302,0.227-0.638,0.435-0.975,0.591l0.372-0.167
			c-0.156,0.069-0.308,0.146-0.46,0.221c-0.227,0.095-0.458,0.172-0.701,0.215c0.117-0.019,0.235-0.037,0.352-0.055
			c-0.245,0.038-0.476,0.086-0.714,0.145c-0.047,0.012-0.213,0.041-0.107,0.025c-0.002,0-0.003,0-0.004,0.001
			c-0.096,0.002-0.186,0.029-0.268,0.079c-0.14,0.063-0.24,0.146-0.357,0.244c-0.148,0.123-0.228,0.31-0.261,0.506
			c-0.006,0.046-0.014,0.117-0.023,0.224c0.002,0.05,0.016,0.098,0.024,0.147c0.006,0.042,0.008,0.086,0.019,0.124
			c0-0.004,0-0.006,0-0.01c0.002,0.008,0.002,0.016,0.004,0.024c0.059,0.199,0.168,0.375,0.326,0.51
			c0.136,0.116,0.285,0.22,0.434,0.32c0.268,0.178,0.575,0.279,0.892,0.327c0.701,0.105,1.416,0.122,2.085-0.147
			c0.503-0.202,0.803-0.383,1.212-0.736c0.401-0.346,0.729-0.771,0.79-1.316C321.501,336.095,321.384,335.537,321.139,335.008z"/>
		<path style="fill:#B07B6F;" d="M130.604,353.605c0.002-0.149-0.032-0.286-0.102-0.414c-0.009-0.02-0.026-0.037-0.036-0.057
			c-0.015-0.042-0.031-0.08-0.049-0.118c-0.059-0.181-0.076-0.339-0.216-0.535c-0.013-0.018-0.023-0.038-0.036-0.056
			c0.02-0.082,0.031-0.165,0.056-0.246c0.051-0.163,0.129-0.326,0.151-0.495c0.035-0.27,0.075-0.544,0.081-0.817
			c0.002-0.077,0-0.153-0.006-0.229c-0.018-0.221-0.075-0.454-0.196-0.645c-0.064-0.079-0.128-0.158-0.192-0.237
			c-0.247-0.213-0.314-0.256-0.202-0.129c-0.12-0.148-0.415-0.244-0.598-0.232c-0.128,0.009-0.258,0.05-0.378,0.111
			c-0.104,0.032-0.211,0.056-0.301,0.116c-0.198,0.129-0.321,0.296-0.457,0.488c0.063-0.085,0.126-0.17,0.189-0.256
			c-0.105,0.142-0.227,0.269-0.354,0.391c-0.213,0.204-0.375,0.45-0.544,0.691c-0.109,0.157-0.215,0.318-0.298,0.49
			c-0.18,0.372-0.331,0.771-0.316,1.193c0.01,0.272,0.055,0.56,0.155,0.816c0.099,0.252,0.208,0.509,0.372,0.726
			c0.29,0.382,0.6,0.691,1.085,0.812c0.052,0.013,0.103,0.022,0.156,0.029c0.166,0.024,0.372,0.059,0.553,0.048
			c0.445-0.029,0.875-0.239,1.141-0.601c0.146-0.16,0.239-0.356,0.311-0.558C130.582,353.797,130.593,353.701,130.604,353.605z"/>
		<path style="fill:#B07B6F;" d="M134.286,355.329c0.002-0.43-0.108-0.846-0.243-1.252c-0.071-0.214-0.139-0.458-0.27-0.64
			c-0.118-0.164-0.269-0.296-0.405-0.444c-0.318-0.347-0.983-0.242-1.185,0.18c-0.017,0.035-0.034,0.07-0.051,0.105
			c-0.04,0.07-0.035,0.07,0.015,0.002c0.051-0.063,0.054-0.068,0.011-0.013c-0.08,0.077-0.14,0.166-0.18,0.266
			c-0.099,0.192-0.126,0.39-0.175,0.596c-0.076,0.314-0.178,0.613-0.227,0.933c-0.048,0.313-0.134,0.614-0.197,0.923
			c-0.031,0.155-0.054,0.314-0.079,0.469c-0.095,0.583,0.057,1.052,0.451,1.423c0.067,0.07,0.139,0.132,0.222,0.187
			c0.018,0.013,0.029,0.028,0.048,0.041l-0.033-0.031c0.268,0.174,0.595,0.262,0.9,0.144c0.013-0.005,0.025-0.01,0.038-0.015
			c-0.104,0.016-0.207,0.033-0.31,0.049C134.127,358.244,134.281,356.461,134.286,355.329z"/>
		<path style="fill:#B07B6F;" d="M130.666,361.216c-0.029-0.077-0.057-0.154-0.084-0.233c-0.045-0.13-0.107-0.251-0.17-0.371
			c-0.061-0.153-0.116-0.307-0.144-0.47c0.014,0.09,0.029,0.181,0.043,0.272c-0.001-0.001-0.001-0.003-0.002-0.004
			c-0.03-0.196-0.068-0.349-0.143-0.522c0.004,0.009,0.009,0.019,0.013,0.029c-0.01-0.022-0.019-0.044-0.028-0.066
			c-0.012-0.025-0.014-0.045-0.029-0.073c-0.02-0.039-0.04-0.077-0.059-0.117c0.016,0.035,0.031,0.07,0.047,0.105
			c-0.137-0.308-0.352-0.549-0.697-0.635c-0.373-0.094-0.708,0.036-0.984,0.284c-0.047,0.042-0.093,0.086-0.136,0.133
			c-0.174,0.189-0.274,0.391-0.353,0.63c-0.076,0.23-0.093,0.484-0.117,0.721c-0.015,0.143-0.021,0.286-0.01,0.43
			c0.01,0.135,0.025,0.297,0.063,0.427c0.04,0.14,0.113,0.272,0.173,0.404c0.031,0.069,0.064,0.136,0.101,0.202
			c0.118,0.209,0.265,0.414,0.446,0.571c0.185,0.161,0.389,0.292,0.628,0.355c0.216,0.057,0.524,0.066,0.728-0.01
			c0.114-0.042,0.245-0.092,0.339-0.15c0.383-0.236,0.595-0.701,0.598-1.14C130.892,361.706,130.785,361.461,130.666,361.216z"/>
		<path style="fill:#B07B6F;" d="M135.899,365.928c-0.005-0.037-0.005-0.073-0.006-0.111c-0.007-0.269-0.088-0.527-0.244-0.747
			c-0.036-0.051-0.064-0.104-0.095-0.158c-0.003-0.006-0.008-0.01-0.011-0.015c0.02-0.152,0.032-0.305,0.031-0.453
			c-0.002-0.269-0.092-0.508-0.224-0.74c-0.042-0.074-0.098-0.147-0.157-0.209c-0.177-0.14-0.224-0.173-0.143-0.1
			c-0.056-0.07-0.135-0.116-0.222-0.148c0,0-0.001-0.001-0.001-0.001c-0.118-0.187-0.467-0.172-0.514,0.069
			c-0.029,0.021-0.058,0.043-0.085,0.067c-0.124,0.073-0.234,0.162-0.349,0.258c0.064-0.052,0.128-0.103,0.192-0.155
			c-0.12,0.097-0.235,0.18-0.327,0.305l-0.004,0.005c-0.073,0.093-0.157,0.175-0.244,0.254c-0.006,0.004-0.011,0.008-0.017,0.012
			c-0.419,0.288-0.618,0.699-0.617,1.201c0.001,0.346,0.157,0.745,0.328,1.038c0.241,0.412,0.777,0.745,1.245,0.797
			c0.354,0.039,0.699-0.045,0.996-0.245c0.379-0.255,0.523-0.664,0.439-1.099C135.881,365.811,135.89,365.869,135.899,365.928z"/>
		<path style="fill:#B07B6F;" d="M342.827,390.51c-0.124-0.385-0.31-0.738-0.592-1.033c-0.186-0.194-0.409-0.353-0.65-0.474
			c-0.769-0.385-1.647,0.137-1.659,1.002c-0.001,0.075-0.005,0.148-0.012,0.222c0.012-0.111,0.025-0.222,0.037-0.333
			c-0.025,0.221-0.037,0.441-0.06,0.662l0.042-0.374c-0.031,0.248-0.042,0.472-0.035,0.717c0.001,0.048-0.005,0.095-0.006,0.143
			c-0.032,0.169-0.068,0.336-0.116,0.504c-0.048,0.17-0.087,0.34-0.138,0.509c-0.071,0.152-0.142,0.305-0.183,0.469
			c-0.027,0.107-0.05,0.213-0.084,0.318c-0.065,0.202-0.077,0.41-0.059,0.618c0.013,0.147,0.038,0.289,0.08,0.428
			c0.063,0.278,0.232,0.485,0.473,0.623c0.126,0.083,0.267,0.155,0.382,0.181c0.162,0.036,0.34,0.05,0.507,0.049
			c0.41-0.003,0.761-0.181,1.072-0.423c0.301-0.234,0.494-0.405,0.687-0.743c0.05-0.088,0.095-0.178,0.136-0.27
			c0.125-0.285,0.257-0.592,0.325-0.901C343.107,391.801,343.013,391.087,342.827,390.51z"/>
		<path style="fill:#B07B6F;" d="M341.247,397.466c-0.013-0.187-0.072-0.361-0.179-0.52c-0.007-0.013-0.013-0.027-0.02-0.04
			c-0.02-0.04-0.039-0.08-0.059-0.12c-0.071-0.146-0.137-0.299-0.224-0.435c-0.143-0.224-0.351-0.404-0.54-0.588
			c-0.128-0.125-0.255-0.263-0.417-0.344c-0.149-0.075-0.302-0.122-0.464-0.149c-0.286-0.049-0.605-0.038-0.857,0.132
			c-0.251,0.17-0.4,0.39-0.497,0.678c-0.056,0.165-0.101,0.296-0.088,0.492c0.012,0.179,0.058,0.354,0.107,0.526
			c0.043,0.151,0.081,0.306,0.132,0.454c0.1,0.286,0.253,0.49,0.422,0.727c0.104,0.145,0.207,0.296,0.33,0.425
			c0.18,0.171,0.39,0.287,0.63,0.348l0.376,0.042c0.068-0.006,0.136-0.016,0.203-0.03c0.182-0.013,0.35-0.07,0.505-0.174
			c0.198-0.134,0.368-0.301,0.486-0.511c0.07-0.104,0.117-0.22,0.141-0.349C341.289,397.839,341.293,397.652,341.247,397.466z"/>
		<path style="fill:#B07B6F;" d="M346.093,400.808c-0.078-0.227-0.183-0.458-0.332-0.65c-0.142-0.183-0.289-0.372-0.461-0.53
			c-0.135-0.124-0.289-0.211-0.438-0.309c-0.189-0.15-0.41-0.26-0.652-0.266c-0.01-0.001-0.016-0.008-0.026-0.009
			c-0.024-0.003-0.042,0.008-0.065,0.008c-0.009,0.001-0.016-0.002-0.025-0.001c0.002,0.001,0.004,0.002,0.007,0.003
			c-0.076,0.001-0.151,0.005-0.217,0.032c-0.004,0.001-0.008,0.001-0.011,0.002c-0.313,0.061-0.665,0.418-0.706,0.738
			c-0.028,0.22-0.063,0.442-0.048,0.665c0.011,0.173,0.051,0.333,0.092,0.494c-0.19,0.297-0.227,0.679-0.117,1.015
			c0.081,0.247,0.216,0.473,0.406,0.653c0.299,0.283,0.675,0.408,1.081,0.421c0.384,0.013,0.8-0.183,1.065-0.458
			c0.107-0.111,0.222-0.269,0.296-0.418c0.067-0.134,0.152-0.327,0.182-0.493c0.025-0.14,0.052-0.318,0.045-0.459
			C346.162,401.113,346.135,400.933,346.093,400.808z"/>
		<path style="fill:#B07B6F;" d="M356.909,289.139c-0.264-0.608-0.817-1.303-1.514-1.401c-0.285-0.04-0.523-0.013-0.753,0.172
			c-0.196,0.159-0.281,0.353-0.313,0.587c0-0.005-0.001-0.003-0.004,0.022c0,0.004,0,0.006-0.001,0.009
			c-0.003,0.024-0.008,0.046-0.01,0.07c-0.007,0.095-0.003,0.072,0.003,0.023c-0.017,0.166-0.022,0.304,0.022,0.493
			c0.015,0.065,0.028,0.131,0.043,0.196c0.022,0.204,0.038,0.407,0.071,0.614c-0.018-0.114-0.036-0.228-0.054-0.342
			c0.031,0.213,0.025,0.427,0.011,0.641c-0.005,0.027-0.008,0.054-0.014,0.081c-0.03,0.132-0.043,0.267-0.054,0.402
			c-0.032,0.182-0.079,0.372-0.068,0.543c0.013,0.19,0.062,0.37,0.11,0.552c0.062,0.238,0.157,0.449,0.331,0.629
			c0.284,0.294,0.741,0.374,1.119,0.258c0.413-0.126,0.891-0.449,1.068-0.838c0.178-0.392,0.322-0.791,0.319-1.227
			C357.218,290.123,357.108,289.598,356.909,289.139z"/>
		<path style="fill:#B07B6F;" d="M355.611,296.074c-0.03-0.117-0.055-0.238-0.097-0.352c-0.071-0.194-0.175-0.373-0.275-0.553
			c-0.211-0.377-0.428-0.74-0.88-0.842c-0.282-0.124-0.602-0.079-0.812,0.159c-0.222,0.167-0.38,0.398-0.424,0.682
			c-0.017,0.11-0.025,0.222-0.038,0.332c-0.023,0.202-0.071,0.416-0.07,0.617c0.001,0.129,0.031,0.263,0.049,0.39
			c0.034,0.24,0.067,0.48,0.101,0.72c0.032,0.227,0.053,0.44,0.137,0.651c0.081,0.206,0.164,0.409,0.261,0.609
			c0.068,0.083,0.135,0.167,0.203,0.25c0.117,0.12,0.254,0.204,0.411,0.252c0.253,0.1,0.558,0.137,0.822,0.045
			c0.206-0.072,0.391-0.185,0.549-0.337c0.245-0.235,0.33-0.575,0.349-0.899C355.932,297.206,355.758,296.642,355.611,296.074z"/>
		<path style="fill:#B07B6F;" d="M360.404,298.409c-0.004-0.018-0.009-0.036-0.015-0.053c-0.029-0.09-0.099-0.257-0.152-0.334
			c-0.071-0.105-0.157-0.203-0.239-0.299c-0.041-0.049-0.086-0.093-0.136-0.132c-0.141-0.134-0.306-0.226-0.495-0.274
			c-0.197-0.048-0.394-0.044-0.589,0.013c-0.349,0.105-0.639,0.394-0.739,0.746c0,0.001-0.001,0.001-0.001,0.002
			c-0.037,0.07-0.066,0.144-0.092,0.22c-0.076,0.151-0.164,0.287-0.196,0.473c-0.008,0.047-0.025,0.092-0.036,0.137
			c-0.002,0.003-0.003,0.006-0.004,0.008c-0.042,0.067-0.074,0.137-0.104,0.209c0.006-0.016,0.013-0.032,0.019-0.048
			c-0.007,0.017-0.014,0.035-0.021,0.052c-0.012,0.029-0.024,0.059-0.036,0.089c-0.007,0.018-0.014,0.035-0.022,0.053
			c-0.003,0.006-0.003,0.012-0.006,0.018c-0.011,0.029-0.022,0.058-0.034,0.087c0.01-0.025,0.02-0.05,0.03-0.076
			c-0.063,0.138-0.093,0.284-0.084,0.44c0,0.025,0.011,0.047,0.013,0.071c-0.006,0.351,0.156,0.711,0.479,0.867
			c0.003,0.001,0.006,0.002,0.009,0.004c0.119,0.104,0.258,0.173,0.415,0.206c0.281,0.071,0.223,0.042,0.354,0.033
			c0.131-0.009,0.276-0.033,0.404-0.065c0.009-0.001,0.017-0.004,0.024-0.009l0.304-0.137c0.016-0.01,0.031-0.021,0.046-0.032
			c0.111-0.084,0.22-0.171,0.325-0.264c0.055-0.048,0.105-0.102,0.151-0.16c0.11-0.14,0.225-0.284,0.313-0.44
			C360.54,299.368,360.522,298.887,360.404,298.409z"/>
		<path style="fill:#B07B6F;" d="M175.628,315.447c-0.012-0.341-0.136-0.58-0.315-0.846c-0.079-0.117-0.146-0.244-0.227-0.36
			c-0.092-0.132-0.202-0.253-0.309-0.374c-0.093-0.121-0.186-0.243-0.269-0.371c-0.135-0.208-0.241-0.424-0.412-0.607
			c-0.1-0.107-0.201-0.21-0.295-0.323c-0.013-0.017-0.03-0.038-0.036-0.046c-0.028-0.037-0.056-0.074-0.083-0.112
			c-0.057-0.079-0.116-0.145-0.189-0.199c-0.018-0.032-0.036-0.064-0.053-0.096c-0.072-0.134-0.306-0.137-0.369,0.008
			c-0.021,0.048-0.041,0.095-0.06,0.144c0.034-0.036,0.069-0.072,0.103-0.108c-0.192,0.122-0.246,0.31-0.322,0.513
			c-0.058,0.155-0.109,0.312-0.152,0.471c-0.058,0.216-0.089,0.432-0.061,0.655c0.031,0.247,0.07,0.494,0.123,0.737
			c0.089,0.414,0.211,0.83,0.457,1.179c0.193,0.274,0.402,0.591,0.698,0.756c0.204,0.113,0.45,0.157,0.678,0.189
			c0.292,0.041,0.537,0.014,0.772-0.177c0.209-0.169,0.354-0.429,0.335-0.707C175.635,315.665,175.632,315.556,175.628,315.447z"/>
		<g>
			<polygon style="fill:#B07B6F;" points="178.784,317.776 178.778,317.768 178.776,317.766 			"/>
			<path style="fill:#B07B6F;" d="M178.731,317.715c0.014,0.019,0.031,0.033,0.045,0.051c-0.054-0.067-0.108-0.134-0.162-0.201
				C178.654,317.615,178.693,317.665,178.731,317.715z"/>
			<path style="fill:#B07B6F;" d="M180.597,316.569c-0.02-0.3-0.062-0.578-0.2-0.847c-0.058-0.112-0.126-0.221-0.195-0.327
				c-0.162-0.251-0.335-0.509-0.576-0.689c-0.125-0.094-0.254-0.197-0.389-0.279c-0.098-0.059-0.203-0.08-0.311-0.093
				c-0.11-0.077-0.219-0.154-0.333-0.224c-0.208-0.128-0.441,0.096-0.386,0.311c0.019,0.073,0.036,0.145,0.052,0.219
				c0.006,0.027,0.011,0.055,0.017,0.082c-0.027,0.068-0.05,0.137-0.059,0.213c-0.013,0.117-0.012,0.235-0.019,0.353
				c-0.012,0.211,0.004,0.406,0.016,0.617c0.017,0.297-0.009,0.582,0.088,0.871c0.033,0.1,0.067,0.199,0.096,0.3
				c0.029,0.101,0.056,0.184,0.1,0.282c0.074,0.165,0.16,0.267,0.278,0.412c0.199,0.241,0.445,0.403,0.777,0.395
				c0.33-0.007,0.644-0.194,0.803-0.485c0.087-0.159,0.177-0.325,0.219-0.502C180.623,316.98,180.611,316.77,180.597,316.569z"/>
		</g>
		<path style="fill:#B07B6F;" d="M181.171,322.197c-0.064-0.174-0.139-0.343-0.251-0.495c-0.053-0.072-0.113-0.14-0.169-0.211
			c-0.023-0.12-0.044-0.241-0.069-0.358c-0.026-0.058-0.052-0.115-0.078-0.173c-0.048-0.084-0.112-0.151-0.193-0.201
			c-0.125-0.092-0.286-0.158-0.446-0.147c-0.095,0.006-0.182,0.044-0.269,0.079c-0.003-0.002-0.007-0.004-0.01-0.006
			c-0.036-0.02-0.072-0.04-0.109-0.057c-0.162-0.077-0.305-0.103-0.48-0.113c-0.029-0.002-0.058-0.003-0.087-0.004
			c-0.073-0.002-0.143,0.01-0.211,0.031c-0.007-0.002-0.014-0.005-0.02-0.007c-0.134-0.045-0.293,0.029-0.372,0.136
			c-0.071,0.096-0.07,0.203-0.04,0.309c-0.018,0.066-0.028,0.135-0.032,0.214c-0.001,0.025-0.002,0.05-0.003,0.074
			c-0.006,0.125,0.004,0.243,0.04,0.366c0.031,0.107,0.061,0.214,0.087,0.323c0.023,0.221,0.041,0.441,0.106,0.66
			c0.028,0.095,0.05,0.19,0.074,0.285c0.04,0.157,0.123,0.307,0.199,0.457c0.047,0.115,0.106,0.222,0.193,0.312
			c0.094,0.139,0.218,0.247,0.37,0.325c0.104,0.041,0.208,0.082,0.312,0.124c0.173,0.05,0.345,0.054,0.517,0.012
			c0.117-0.003,0.225-0.035,0.325-0.096c0.159-0.056,0.296-0.148,0.41-0.277c0.216-0.246,0.395-0.586,0.359-0.924
			C181.3,322.614,181.262,322.398,181.171,322.197z"/>
		<path style="fill:#B07B6F;" d="M346.528,79.214c-0.028-0.128-0.068-0.254-0.113-0.377c-0.081-0.222-0.18-0.439-0.284-0.651
			c-0.104-0.215-0.255-0.391-0.41-0.572c-0.175-0.205-0.373-0.388-0.588-0.549c-0.091-0.069-0.184-0.151-0.283-0.209
			c-0.104-0.061-0.227-0.107-0.341-0.146c-0.056-0.019-0.113-0.036-0.17-0.05c-0.209-0.051-0.607-0.068-0.812,0.017
			c-0.186,0.077-0.334,0.165-0.457,0.33c-0.117,0.158-0.184,0.344-0.18,0.545c0.005,0.215,0.087,0.438,0.174,0.633
			c0.041,0.093,0.084,0.191,0.133,0.28c0.04,0.073,0.092,0.138,0.146,0.202c0.134,0.173,0.259,0.353,0.36,0.548
			c0.093,0.178,0.193,0.352,0.285,0.531c0.026,0.069,0.054,0.136,0.08,0.206c0.143,0.385,0.4,0.686,0.74,0.908
			c0.228,0.149,0.63,0.184,0.884,0.096c0.296-0.103,0.496-0.282,0.672-0.541c0.084-0.123,0.125-0.279,0.164-0.424
			C346.599,79.73,346.586,79.478,346.528,79.214z"/>
		<path style="fill:#B07B6F;" d="M346.91,83.326c-0.054-0.217-0.203-0.428-0.356-0.588c-0.127-0.132-0.297-0.213-0.456-0.298
			c-0.202-0.109-0.4-0.222-0.614-0.307c-0.201-0.08-0.411-0.128-0.62-0.182c-0.081-0.021-0.162-0.044-0.244-0.064
			c-0.234-0.056-0.478-0.033-0.698,0.054c-0.059,0.011-0.118,0.021-0.177,0.031c-0.166,0.03-0.369,0.209-0.442,0.356
			c-0.087,0.175-0.133,0.392-0.063,0.582c0.018,0.049,0.036,0.098,0.054,0.147c0.043,0.229,0.153,0.446,0.313,0.619
			c0.057,0.062,0.121,0.119,0.18,0.179c0.159,0.157,0.311,0.32,0.491,0.453c0.179,0.132,0.369,0.242,0.559,0.356
			c0.12,0.072,0.228,0.132,0.36,0.185c0.155,0.077,0.32,0.11,0.497,0.099c0.068-0.007,0.136-0.017,0.204-0.03
			c0.167-0.011,0.322-0.065,0.464-0.16c0.013-0.006,0.025-0.012,0.038-0.019c0.351-0.173,0.591-0.655,0.564-1.036
			C346.957,83.581,346.94,83.445,346.91,83.326z"/>
		<path style="fill:#B07B6F;" d="M352.053,83.966c-0.113-0.167-0.235-0.305-0.406-0.413c-0.039-0.025-0.08-0.046-0.121-0.066
			c-0.126-0.061-0.258-0.115-0.394-0.151c-0.3-0.082-0.658,0.121-0.721,0.431c-0.012,0.058-0.032,0.113-0.051,0.169
			c-0.052,0.113-0.081,0.201-0.103,0.318c-0.015,0.074-0.04,0.145-0.065,0.216c-0.03,0.068-0.057,0.138-0.072,0.209
			c-0.011,0.052-0.02,0.104-0.034,0.156c-0.081,0.312-0.015,0.628,0.139,0.904c0.109,0.174,0.252,0.312,0.431,0.412
			c0.137,0.083,0.284,0.126,0.44,0.13c0.157,0.032,0.313,0.021,0.468-0.032c0.152-0.04,0.284-0.113,0.395-0.219
			c0.126-0.086,0.225-0.198,0.296-0.337c0.102-0.186,0.151-0.385,0.147-0.597C352.431,84.694,352.277,84.295,352.053,83.966z"/>
		<path style="fill:#B07B6F;" d="M173.666,66.946c-0.207-0.175-0.445-0.328-0.711-0.397c-0.112-0.029-0.229-0.038-0.345-0.044
			c-0.216-0.031-0.428-0.08-0.633-0.156c-0.113-0.047-0.227-0.091-0.346-0.122c-0.073-0.019-0.143-0.045-0.214-0.07
			c-0.033-0.015-0.067-0.029-0.1-0.045c-0.405-0.203-0.957-0.165-1.271,0.193c-0.301,0.343-0.402,0.88-0.136,1.279
			c0.158,0.237,0.34,0.463,0.541,0.666c0.298,0.301,0.636,0.438,1.022,0.586c0.196,0.075,0.397,0.134,0.605,0.168
			c0.308,0.051,0.608,0.1,0.915,0.013c0.273-0.077,0.507-0.228,0.711-0.42C174.142,68.183,174.13,67.338,173.666,66.946z"/>
		<path style="fill:#B07B6F;" d="M176.218,70.223c-0.088-0.05-0.181-0.09-0.282-0.116c-0.2-0.049-0.4-0.045-0.598,0.013
			c-0.196,0.087-0.396,0.158-0.578,0.274c-0.107,0.068-0.218,0.127-0.333,0.18c0.005-0.002,0.01-0.005,0.015-0.007
			c-0.074,0.036-0.145,0.075-0.214,0.123c-0.07,0.049-0.143,0.095-0.218,0.137c-0.029,0.016-0.059,0.031-0.088,0.046
			c-0.002,0.001-0.001,0-0.003,0.001c-0.035,0.014-0.071,0.026-0.106,0.04c-0.097,0.038-0.168,0.086-0.23,0.143
			c-0.039-0.003-0.078-0.002-0.118-0.007c-0.137-0.015-0.273,0.119-0.304,0.243c-0.036,0.145,0.036,0.28,0.156,0.359
			c0.03,0.02,0.061,0.036,0.092,0.055c0.054,0.137,0.168,0.252,0.283,0.332c0.342,0.238,0.762,0.433,1.18,0.455
			c0.478,0.025,0.974-0.08,1.377-0.339c0.167-0.104,0.298-0.241,0.394-0.412c0.098-0.178,0.145-0.368,0.141-0.571l0-0.002l0-0.001
			C176.897,70.731,176.616,70.345,176.218,70.223z"/>
		<path style="fill:#B07B6F;" d="M181.963,69.296c-0.024-0.35-0.208-0.633-0.465-0.864c-0.122-0.109-0.243-0.245-0.391-0.315
			c-0.068-0.032-0.138-0.059-0.207-0.092c-0.15-0.071-0.304-0.16-0.467-0.187c-0.158-0.026-0.329-0.063-0.485-0.06
			c-0.129,0.003-0.257,0.003-0.386-0.005c-0.542-0.035-1.016,0.625-0.82,1.127c0.077,0.197,0.157,0.4,0.263,0.584
			c0.163,0.285,0.44,0.531,0.734,0.669c0.152,0.071,0.33,0.161,0.483,0.2c0.163,0.041,0.346,0.042,0.516,0.035
			c0.246-0.01,0.48-0.043,0.7-0.169c0.166-0.096,0.295-0.229,0.393-0.391c0.065-0.07,0.121-0.147,0.141-0.246
			C181.991,69.485,181.984,69.389,181.963,69.296z"/>
		<path style="fill:#B07B6F;" d="M340.092,224.115c-0.026-0.109-0.063-0.216-0.095-0.324c-0.037-0.123-0.07-0.247-0.144-0.357
			c-0.057-0.07-0.113-0.14-0.17-0.21c-0.112-0.084-0.173-0.129-0.2-0.149c-0.193-0.14-0.469-0.178-0.687-0.113
			c0.181-0.039,0.179-0.041-0.005-0.009c-0.14,0.009-0.27,0.054-0.389,0.134c-0.101,0.062-0.204,0.165-0.298,0.248
			c-0.073,0.065-0.149,0.129-0.22,0.197c-0.235,0.228-0.391,0.565-0.557,0.848c-0.179,0.306-0.388,0.616-0.45,0.971
			c-0.102,0.584-0.223,1.2,0.175,1.713c0.203,0.261,0.401,0.461,0.716,0.586c0.29,0.115,0.657,0.165,0.959,0.053
			c0.149-0.055,0.308-0.111,0.44-0.192c0.237-0.146,0.456-0.385,0.584-0.635c0.107-0.209,0.176-0.446,0.263-0.665
			c0.135-0.344,0.116-0.736,0.123-1.103C340.142,224.775,340.169,224.441,340.092,224.115z"/>
		<path style="fill:#B07B6F;" d="M345.64,220.139c-0.244-0.249-0.577-0.348-0.916-0.359c-0.157-0.005-0.325,0.021-0.472,0.079
			c-0.169,0.066-0.312,0.142-0.422,0.291c-0.138,0.188-0.209,0.45-0.102,0.667c0.005,0.013,0.017,0.022,0.023,0.034
			c-0.152,0.287-0.296,0.577-0.381,0.89c-0.05,0.186-0.113,0.373-0.152,0.562c-0.092,0.441,0.003,0.938,0.235,1.328
			c0.312,0.523,1.036,0.684,1.55,0.37c0.133-0.082,0.25-0.194,0.361-0.304c0.2-0.199,0.34-0.416,0.426-0.691
			c0.053-0.168,0.085-0.343,0.123-0.515c0.058-0.261,0.098-0.521,0.1-0.789c0.001-0.17,0.002-0.341,0.002-0.511
			c0-0.076,0.004-0.153,0.001-0.23C346.007,220.643,345.858,220.361,345.64,220.139z"/>
		<path style="fill:#B07B6F;" d="M344.79,228.084c-0.021-0.151-0.038-0.306-0.079-0.453c-0.075-0.267-0.242-0.519-0.471-0.684
			c-0.021-0.023-0.038-0.049-0.061-0.071c-0.077-0.074-0.164-0.147-0.254-0.199c-0.127-0.073-0.257-0.099-0.391-0.111
			c-0.051-0.023-0.107-0.04-0.163-0.049c-0.185-0.096-0.439,0.004-0.484,0.216c0,0.001-0.001,0.003-0.001,0.005
			c-0.014,0.023-0.034,0.047-0.046,0.071c-0.008,0.008-0.019,0.013-0.026,0.021c-0.09,0.094-0.145,0.201-0.192,0.319
			c-0.004,0.009-0.007,0.019-0.01,0.028c-0.085,0.111-0.147,0.241-0.199,0.382c0.015-0.037,0.03-0.075,0.044-0.112
			c-0.03,0.072-0.067,0.138-0.108,0.204c-0.04,0.062-0.065,0.129-0.089,0.196c-0.01,0.009-0.017,0.02-0.027,0.028
			c-0.023,0.018-0.045,0.037-0.068,0.055c-0.033,0.036-0.062,0.077-0.089,0.118c-0.011,0.007-0.025,0.01-0.035,0.019
			c-0.059,0.048-0.119,0.096-0.178,0.144c-0.086,0.083-0.145,0.181-0.179,0.293c-0.039,0.071-0.058,0.147-0.056,0.228
			c-0.024,0.12-0.016,0.239,0.024,0.357c0.011,0.065,0.075,0.184,0.108,0.241c0.044,0.075,0.107,0.14,0.165,0.205
			c0.02,0.023,0.041,0.043,0.064,0.063c0.095,0.082,0.218,0.177,0.339,0.232c0.112,0.051,0.23,0.1,0.349,0.135
			c0.014,0.004,0.028,0.008,0.043,0.011c0.098,0.023,0.263,0.042,0.363,0.038c0.282-0.011,0.551-0.12,0.791-0.262
			c0.309-0.182,0.567-0.457,0.749-0.764c0.056-0.095,0.11-0.24,0.142-0.347c0.009-0.03,0.04-0.271,0.041-0.393
			C344.805,228.191,344.798,228.137,344.79,228.084z"/>
		<path style="fill:#31161A;" d="M271.901,81.212c-1.508-2.598-4.071-5.007-7.248-4.761c-0.762,0.059-1.379,0.99-1.203,1.712
			c0.522,2.14,2.146,3.28,3.468,4.911c0.795,0.98,1.241,2.298,0.84,3.31c-0.441,1.114-2.166,1.49-3.328,1.54
			c-1.604,0.069-3.118-0.45-4.421-1.354c-1.745-1.211-4.514,0.319-4.001,2.539c0.624,2.698,0.565,5.425-0.198,8.094
			c-0.625,2.188-1.841,5.309-4.572,5.224c-4.732-0.148-8.678-5.48-8.808-9.917c-0.025-0.864-0.373-1.655-1.237-1.977
			c-0.739-0.275-1.823-0.037-2.232,0.693c-0.872,1.556-1.938,3.206-3.645,3.934c-1.233,0.525-2.85,0.497-3.698-0.684
			c-0.933-1.3-0.713-3.027-0.029-4.378c0.403-0.796,1.021-1.608,1.227-2.483c0.104-0.442,0.098-1.461-0.507-1.63
			c-2.452-0.687-4.09,2.621-4.578,4.557c-0.626,2.488-0.043,5.306,1.926,7.049c1.871,1.657,4.476,1.854,6.773,1.059
			c1.105-0.383,2.072-1.022,2.929-1.798c0.563,1.74,1.445,3.37,2.677,4.826c2.217,2.62,5.682,4.835,9.203,4.886
			c4.126,0.059,6.97-3.185,8.594-6.647c1.055-2.248,1.573-4.731,1.624-7.222c4.151,0.964,8.919,0.049,10.889-3.933
			C273.51,86.413,273.197,83.446,271.901,81.212z"/>
		<path style="fill:#B07B6F;" d="M248.118,94.575c-0.001-0.003,0-0.006,0-0.01c0.002-0.343-0.163-0.653-0.397-0.893
			c-0.008-0.008-0.016-0.015-0.023-0.023c-0.055-0.059-0.122-0.099-0.186-0.143c-0.106-0.244-0.274-0.461-0.444-0.659
			c-0.033-0.038-0.068-0.075-0.105-0.109c-0.16-0.145-0.348-0.273-0.562-0.318c-0.106-0.022-0.235-0.041-0.35-0.03
			c-0.218,0.02-0.331,0.053-0.522,0.154c-0.057,0.046-0.114,0.092-0.171,0.138c-0.082,0.08-0.139,0.173-0.171,0.28
			c-0.042,0.107-0.059,0.234-0.056,0.36c0,0.001,0,0.002,0,0.004c0,0,0,0,0-0.001c0,0.001,0,0.001,0,0.001
			c-0.006,0.052-0.011,0.104-0.011,0.134c0,0.041,0.012,0.089,0.02,0.137c0,0.001,0,0.003-0.001,0.004
			c-0.006-0.04-0.012-0.079-0.019-0.119c0.012,0.081,0.003,0.163-0.002,0.245c-0.019,0.107-0.035,0.215-0.02,0.319
			c0.01,0.071,0.018,0.142,0.027,0.213c0.041,0.336,0.063,0.48,0.229,0.777c0.078,0.139,0.183,0.269,0.302,0.375
			c0.118,0.106,0.249,0.208,0.391,0.281c0.345,0.177,0.749,0.272,1.128,0.129c0.011-0.004,0.021-0.009,0.032-0.013
			c0.104-0.044,0.206-0.091,0.308-0.138c0.146-0.083,0.262-0.194,0.348-0.334c0.113-0.153,0.166-0.23,0.219-0.443
			c0.001-0.005,0.001-0.011,0.003-0.016c0.037-0.158,0.036-0.26,0.023-0.373C248.111,94.529,248.115,94.551,248.118,94.575z"/>
		<path style="fill:#B07B6F;" d="M249.287,87.714c-0.017-0.062-0.034-0.124-0.051-0.185c-0.055-0.2-0.128-0.389-0.252-0.557
			c-0.073-0.1-0.147-0.199-0.22-0.299c-0.114-0.154-0.237-0.27-0.418-0.342c-0.172-0.068-0.38-0.093-0.56-0.031
			c-0.141,0.049-0.266,0.126-0.374,0.229c-0.082,0.08-0.139,0.173-0.171,0.28c-0.051,0.103-0.074,0.214-0.067,0.332
			c-0.012,0.125-0.024,0.249-0.036,0.374c-0.011,0.114-0.006,0.19,0.013,0.309c0.017,0.107,0.04,0.204,0.068,0.308
			c0.015,0.056,0.031,0.112,0.046,0.169c0.066,0.239,0.174,0.391,0.335,0.575c0.12,0.136,0.223,0.252,0.384,0.349
			c0.179,0.109,0.468,0.141,0.666,0.072c0.21-0.073,0.399-0.207,0.507-0.408c0.085-0.16,0.116-0.33,0.149-0.505
			C249.351,88.153,249.35,87.942,249.287,87.714z"/>
		<path style="fill:#B07B6F;" d="M253.012,93.192c-0.045-0.119-0.095-0.238-0.154-0.35c-0.079-0.15-0.254-0.264-0.387-0.358
			c-0.095-0.067-0.202-0.115-0.313-0.147c-0.099-0.07-0.193-0.148-0.305-0.198c-0.135-0.059-0.276-0.06-0.395,0.037
			c-0.101,0.082-0.174,0.248-0.119,0.378c0.032,0.076,0.048,0.157,0.068,0.236c-0.002,0.007-0.006,0.014-0.008,0.022
			c-0.014,0.054-0.032,0.107-0.052,0.159c0.016-0.04,0.032-0.08,0.047-0.119c-0.051,0.115-0.093,0.218-0.107,0.343
			c-0.003,0.028-0.005,0.056-0.007,0.083c-0.01,0.068-0.022,0.137-0.041,0.204c-0.011,0.038-0.023,0.076-0.036,0.113
			c-0.014,0.038-0.018,0.08-0.024,0.121c0-0.001,0-0.003,0-0.004c-0.001,0.007-0.003,0.015-0.004,0.022
			c-0.003,0.019-0.009,0.038-0.01,0.057c-0.008,0.044-0.014,0.088-0.025,0.132c-0.061,0.248-0.018,0.536,0.116,0.753
			c0.124,0.201,0.361,0.39,0.596,0.437c0.252,0.052,0.534,0.033,0.754-0.116c0.065-0.053,0.13-0.105,0.195-0.158
			c0.119-0.125,0.2-0.271,0.243-0.438c0.075-0.197,0.128-0.418,0.098-0.628C253.111,93.576,253.083,93.381,253.012,93.192z"/>
		<path style="fill:#B07B6F;" d="M252.049,123.682c-0.13-0.113-0.262-0.198-0.398-0.263c-0.231-0.46-0.483-0.91-0.718-1.362
			c-0.381-0.732-0.832-1.457-1.348-2.1c-0.317-0.396-0.803-0.692-1.332-0.508c-0.478,0.167-0.859,0.618-0.833,1.146
			c0.025,0.502,0.109,0.992,0.192,1.487c0.07,0.419,0.133,0.838,0.238,1.251c0.206,0.811,0.351,1.671,0.688,2.438
			c0.173,0.394,0.347,0.71,0.705,0.974c0.32,0.236,0.754,0.422,1.163,0.383c0.475-0.045,0.841-0.137,1.246-0.383
			c0.592-0.36,0.939-1.07,0.924-1.759C252.564,124.508,252.427,124.01,252.049,123.682z"/>
		<g>
			<path style="fill:#B07B6F;" d="M262.722,127.711c-0.127-0.343-0.279-0.674-0.429-1.007c0.064,0.142,0.128,0.285,0.191,0.427
				c-0.252-0.576-0.411-1.177-0.628-1.764c-0.101-0.272-0.176-0.551-0.268-0.826c-0.041-0.13-0.095-0.254-0.162-0.374
				c0.021,0.047,0.042,0.093,0.063,0.14c0.009-0.011-0.07-0.166-0.079-0.186c-0.058-0.138-0.104-0.284-0.185-0.41
				c-0.013-0.02-0.088-0.116-0.143-0.184c-0.39-0.474-1.069-0.663-1.547-0.156c-0.372,0.396-0.596,0.94-0.674,1.475
				c-0.081,0.561-0.154,1.118-0.097,1.682c0.086,0.845,0.219,1.73,0.566,2.512c-0.153,0.283-0.081,0.618,0.126,0.871
				c0.001,0.001,0.019,0.022,0.037,0.043c-0.047-0.05,0.129,0.18,0.199,0.24c0.213,0.187,0.467,0.299,0.736,0.382
				c0.585,0.179,1.208,0.074,1.713-0.265c0.48-0.322,0.916-0.925,0.839-1.541C262.93,128.369,262.856,128.072,262.722,127.711z"/>
			<path style="fill:#B07B6F;" d="M261.083,123.526c0.003,0.004,0.007,0.006,0.009,0.01
				C260.991,123.411,261.024,123.452,261.083,123.526z"/>
		</g>
		<path style="fill:#B07B6F;" d="M257.624,132.945c-0.174-0.504-0.488-1.062-1.001-1.246c-0.002-0.001-0.004-0.002-0.005-0.003
			c-0.004-0.002-0.008-0.002-0.012-0.004c-0.03-0.01-0.06-0.022-0.091-0.029c-0.292-0.106-0.635,0.002-0.805,0.263
			c-0.28,0.307-0.365,0.777-0.4,1.178c-0.006,0.07-0.012,0.141-0.017,0.211c-0.025,0.159-0.051,0.318-0.085,0.475
			c-0.139,0.632-0.228,1.249-0.466,1.858c0.049-0.124,0.098-0.248,0.147-0.372c-0.107,0.262-0.188,0.464-0.218,0.737
			c-0.016,0.147-0.029,0.293-0.043,0.44l0.034-0.301c-0.038,0.334-0.048,0.615,0.095,0.934c0.137,0.305,0.331,0.491,0.609,0.68
			c0.045,0.031,0.296,0.128,0.35,0.138c0.464,0.091,1.094,0.012,1.403-0.405c0.258-0.348,0.496-0.63,0.607-1.059
			c0.052-0.203,0.087-0.412,0.115-0.62c0.065-0.484,0.128-0.987,0.099-1.478C257.911,133.877,257.777,133.386,257.624,132.945z"/>
		<path style="fill:#B07B6F;" d="M255.142,141.746c-0.09-0.269-0.191-0.521-0.308-0.781c0.053,0.119,0.107,0.239,0.161,0.358
			c-0.318-0.72-0.581-1.501-0.705-2.28c0.018,0.113,0.036,0.227,0.053,0.34c-0.043-0.289-0.103-0.549-0.173-0.828
			c-0.041-0.162-0.079-0.309-0.17-0.457c-0.044-0.056-0.09-0.111-0.135-0.166c-0.006-0.008-0.001-0.002-0.015-0.019
			c-0.001-0.001-0.002-0.002-0.003-0.003c-0.017-0.02-0.033-0.041-0.049-0.061c0.027,0.033,0.032,0.04,0.047,0.059
			c-0.268-0.337-0.768-0.572-1.172-0.275c-0.05,0.037-0.1,0.075-0.149,0.114c-0.266,0.212-0.394,0.41-0.515,0.72
			c-0.071,0.181-0.152,0.368-0.185,0.56c-0.085,0.487-0.101,1.008-0.073,1.502c0.029,0.508,0.124,1.005,0.284,1.487
			c0.241,0.729,0.686,1.552,1.509,1.709c0.3,0.057,0.58,0.04,0.862-0.086c0.237-0.107,0.52-0.306,0.622-0.557
			c0.114-0.28,0.216-0.496,0.212-0.809C255.237,142.096,255.198,141.914,255.142,141.746z"/>
		<path style="fill:#B07B6F;" d="M262.287,141.123c-0.13-0.195-0.28-0.381-0.436-0.555c-0.145-0.161-0.343-0.29-0.558-0.357
			c-0.197-0.104-0.399-0.194-0.613-0.257c-0.435-0.127-0.746,0.306-0.664,0.695c0.006,0.028,0.009,0.049,0.012,0.065
			c0.004,0.038,0.008,0.075,0.011,0.113c0.002,0.042-0.002,0.084-0.002,0.126c-0.03,0.123-0.048,0.251-0.044,0.384
			c0.005,0.14-0.003,0.279-0.017,0.417c0.012-0.109,0.024-0.219,0.037-0.329c-0.025,0.211-0.04,0.421-0.058,0.632
			c-0.034,0.218-0.094,0.422-0.151,0.636c-0.064,0.239-0.1,0.476-0.191,0.709c0.047-0.118,0.094-0.236,0.14-0.354
			c-0.127,0.308-0.242,0.568-0.25,0.917c-0.002,0.084,0,0.169-0.003,0.253c-0.017,0.45,0.287,0.896,0.669,1.108
			c0.441,0.245,0.879,0.175,1.313-0.029c0.323-0.152,0.597-0.392,0.777-0.702c0.136-0.234,0.229-0.501,0.323-0.751
			c0.154-0.411,0.193-0.846,0.135-1.28C262.649,142.07,262.568,141.547,262.287,141.123z"/>
		<path style="fill:#B07B6F;" d="M153.852,223.826c-0.098-0.251-0.216-0.492-0.331-0.734c-0.098-0.224-0.193-0.449-0.278-0.679
			c-0.117-0.317-0.269-0.618-0.411-0.924c-0.018-0.041-0.036-0.083-0.054-0.124c-0.129-0.306-0.297-0.601-0.61-0.758
			c-0.264-0.132-0.533-0.181-0.826-0.135c-0.586,0.092-1.161,0.652-1.09,1.292c0.063,0.574,0.134,1.146,0.333,1.69
			c0.08,0.22,0.167,0.438,0.259,0.652c0.137,0.317,0.264,0.646,0.452,0.938c0.382,0.595,1.017,0.962,1.736,0.745
			c0.203-0.061,0.372-0.17,0.523-0.318C154.003,225.029,154.072,224.391,153.852,223.826z"/>
		<path style="fill:#B07B6F;" d="M159.33,226.052c-0.165-0.443-0.329-0.937-0.582-1.335c-0.268-0.42-0.72-0.871-1.22-0.922
			c-0.009-0.009-0.017-0.018-0.025-0.027c-0.174-0.183-0.486-0.026-0.482,0.213c0,0.01,0,0.021,0,0.031
			c-0.002,0.003-0.006,0.006-0.008,0.009c0.002-0.003,0.004-0.007,0.005-0.01c-0.004,0.006-0.008,0.011-0.012,0.017
			c-0.011,0.014-0.024,0.031-0.034,0.046c-0.102,0.134-0.197,0.26-0.24,0.432c-0.013,0.107-0.025,0.213-0.035,0.32
			c-0.001,0.005,0,0.004-0.001,0.009c-0.005,0.039-0.023,0.182-0.026,0.201c-0.027,0.216-0.037,0.358-0.015,0.562
			c0.054,0.492,0.027,1.01,0.134,1.494c0.044,0.201,0.1,0.399,0.143,0.6c0.061,0.283,0.165,0.526,0.29,0.789
			c0.015,0.031,0.029,0.062,0.043,0.093c0.004,0.01,0.002,0.005,0.008,0.017c0.085,0.198,0.152,0.376,0.312,0.532
			c0.328,0.319,0.809,0.412,1.211,0.173c0.347-0.206,0.481-0.543,0.586-0.914c0.076-0.272,0.157-0.551,0.157-0.836
			C159.538,227.057,159.5,226.508,159.33,226.052z"/>
		<path style="fill:#B07B6F;" d="M158.973,233.705c-0.173-0.255-0.403-0.416-0.684-0.523c-0.174-0.071-0.33-0.169-0.496-0.253
			c-0.167-0.085-0.326-0.176-0.478-0.286c0.004,0.003,0.008,0.006,0.012,0.009c-0.052-0.037-0.105-0.074-0.162-0.102
			c-0.061-0.03-0.121-0.062-0.18-0.096c-0.053-0.031-0.105-0.063-0.156-0.098c-0.136-0.092-0.284-0.146-0.437-0.166
			c-0.003-0.002-0.007-0.004-0.01-0.007c-0.021-0.014-0.096-0.068-0.056-0.038c-0.04-0.038-0.086-0.063-0.139-0.077
			c-0.039-0.016-0.082-0.011-0.122-0.019c-0.006-0.004-0.007-0.005-0.001,0c-0.009-0.002-0.018-0.003-0.028-0.004
			c-0.2-0.111-0.408-0.047-0.51,0.163c-0.16,0.17-0.19,0.369-0.207,0.601c-0.001,0.015,0,0.031-0.001,0.046
			c-0.055,0.16-0.077,0.331-0.052,0.494c0.015,0.093,0.029,0.167,0.058,0.254c0.027,0.082,0.059,0.162,0.093,0.242
			c0.054,0.126,0.11,0.252,0.17,0.376c0.062,0.128,0.163,0.23,0.256,0.337c0.065,0.074,0.134,0.146,0.207,0.214
			c0.21,0.197,0.443,0.383,0.703,0.508c0.266,0.128,0.547,0.239,0.833,0.315c0.315,0.084,0.696,0.02,0.972-0.15
			c0.259-0.159,0.503-0.466,0.565-0.769C159.189,234.352,159.165,233.988,158.973,233.705z"/>
		<path style="fill:#B07B6F;" d="M165.864,235.528c-0.115-0.221-0.236-0.448-0.374-0.655c-0.12-0.181-0.288-0.343-0.435-0.505
			c-0.082-0.09-0.16-0.186-0.246-0.272c-0.086-0.086-0.191-0.154-0.289-0.227c-0.056-0.042-0.112-0.084-0.169-0.126
			c-0.146-0.109-0.287-0.165-0.441-0.197c-0.061-0.03-0.122-0.06-0.183-0.09c-0.338-0.166-0.746,0.056-0.741,0.448
			c0.001,0.074,0.002,0.147,0.003,0.22c-0.038,0.146-0.051,0.292-0.019,0.465c0.013,0.068,0.027,0.136,0.04,0.204
			c0.023,0.119,0.039,0.242,0.079,0.356c0.04,0.114,0.093,0.225,0.139,0.337c0.083,0.201,0.155,0.43,0.263,0.615
			c0.126,0.215,0.282,0.42,0.431,0.62c0.26,0.351,0.558,0.518,0.997,0.542c0.037,0.002,0.074,0.003,0.111,0.005
			c0.177,0.008,0.352-0.013,0.507-0.108c0.151-0.093,0.247-0.229,0.313-0.387c0.013-0.032,0.027-0.064,0.04-0.096
			c0.099-0.18,0.147-0.373,0.143-0.579C166.027,235.894,165.971,235.704,165.864,235.528z"/>
		<path style="fill:#E2A571;" d="M164.923,99.512c-0.167-0.271-0.454-0.473-0.655-0.721c0.074,0.091,0.148,0.183,0.222,0.275
			c-0.121-0.154-0.249-0.3-0.376-0.447c-0.171-0.219-0.32-0.452-0.437-0.704c0.045,0.1,0.09,0.2,0.134,0.3
			c-0.203-0.455-0.497-1.138-1.018-1.317c-0.268-0.147-0.652-0.118-0.871,0.084c-0.358,0.208-0.526,0.61-0.585,1.02
			c-0.02,0.138-0.051,0.279-0.046,0.418c0.004,0.116,0.043,0.292,0.071,0.427c0.023,0.111,0.052,0.222,0.086,0.33
			c0.184,0.587,0.478,1.198,0.93,1.626c0.226,0.214,0.486,0.43,0.756,0.58c0.516,0.288,1.298,0.192,1.719-0.248
			C165.245,100.725,165.207,99.972,164.923,99.512z"/>
		<path style="fill:#E2A571;" d="M169.61,100.169c-0.056-0.137-0.116-0.272-0.175-0.408c-0.047-0.108-0.089-0.222-0.155-0.319
			c-0.064-0.094-0.146-0.184-0.223-0.269c-0.052-0.057-0.105-0.115-0.157-0.173c-0.105-0.115-0.209-0.23-0.314-0.345
			c-0.129-0.142-0.331-0.227-0.538-0.258c-0.044-0.013-0.087-0.027-0.131-0.04c-0.015-0.005-0.03-0.009-0.046-0.012
			c-0.095-0.014-0.155-0.023-0.183-0.025c-0.012-0.004-0.024-0.008-0.036-0.012c-0.141-0.05-0.307,0.006-0.418,0.095
			c-0.127,0.103-0.165,0.224-0.181,0.382c0,0.004-0.001,0.008-0.001,0.012c-0.018,0.05-0.049,0.097-0.055,0.151
			c-0.005,0.036-0.01,0.073-0.017,0.109c-0.067,0.196-0.086,0.412-0.013,0.589c0.059,0.143,0.118,0.286,0.176,0.429
			c0.027,0.065,0.053,0.13,0.08,0.195c0.046,0.113,0.093,0.243,0.151,0.342c0.059,0.101,0.136,0.189,0.214,0.278
			c0.097,0.112,0.195,0.225,0.294,0.335c0.146,0.161,0.348,0.265,0.541,0.361c0.278,0.138,0.594,0.147,0.864-0.019
			c0.258-0.159,0.412-0.446,0.407-0.748C169.693,100.604,169.692,100.367,169.61,100.169z"/>
		<path style="fill:#E2A571;" d="M336.335,104.648c0.033-0.294-0.012-0.62-0.183-0.873c-0.191-0.282-0.486-0.556-0.836-0.613
			c-0.235-0.039-0.479-0.079-0.717-0.079c-0.169,0-0.359,0.048-0.525,0.092c-0.063,0.017-0.126,0.035-0.188,0.056
			c-0.342,0.115-0.682,0.267-0.988,0.46c-0.105,0.066-0.206,0.139-0.303,0.217c-0.123,0.098-0.248,0.195-0.365,0.3
			c-0.116,0.103-0.199,0.234-0.289,0.36c-0.072,0.101-0.138,0.206-0.197,0.316c-0.03,0.056-0.059,0.113-0.085,0.172
			c-0.077,0.174-0.127,0.342-0.132,0.534c-0.003,0.155,0.053,0.304,0.121,0.444c0.049,0.161,0.122,0.305,0.274,0.417
			c0.166,0.123,0.353,0.152,0.548,0.136c0.228,0.023,0.456-0.003,0.661-0.124c0.042-0.025,0.082-0.053,0.125-0.078
			c0.093-0.054,0.189-0.103,0.286-0.147c-0.094,0.042-0.187,0.084-0.281,0.126c0.167-0.073,0.329-0.154,0.493-0.233
			c0.203-0.086,0.415-0.141,0.631-0.184c0.049-0.004,0.098-0.012,0.148-0.013c0.243-0.006,0.479-0.063,0.718-0.104l-0.078,0.012
			c0.301-0.054,0.591-0.155,0.802-0.397C336.178,105.214,336.3,104.956,336.335,104.648z"/>
		<path style="fill:#E2A571;" d="M338.31,107.465c-0.044-0.21-0.157-0.385-0.297-0.544c-0.091-0.103-0.286-0.172-0.42-0.163
			c-0.124,0.008-0.229,0.055-0.326,0.123c-0.005,0.001-0.011,0.004-0.016,0.005c0.006-0.005,0.012-0.009,0.017-0.014
			c-0.009,0.007-0.02,0.011-0.029,0.018c-0.051,0.012-0.071,0.022-0.141,0.053c-0.072,0.022-0.134,0.061-0.188,0.115
			c0.016-0.013,0.032-0.026,0.047-0.038c-0.029,0.023-0.063,0.038-0.094,0.057c-0.118,0.036-0.238,0.065-0.347,0.14
			c-0.066,0.045-0.131,0.086-0.203,0.121c-0.107,0.042-0.205,0.097-0.289,0.173c-0.124,0.041-0.237,0.111-0.301,0.227
			c-0.099,0.177-0.071,0.355,0.012,0.529c0.013,0.026,0.036,0.046,0.052,0.071c0.03,0.105,0.076,0.204,0.15,0.295
			c0.022,0.034,0.047,0.064,0.076,0.092c0.107,0.102,0.233,0.171,0.376,0.208c0.03,0.011,0.061,0.022,0.092,0.03
			c0.138,0.039,0.294,0.051,0.433,0.062c0.232,0.018,0.467-0.036,0.666-0.159c0.121-0.076,0.234-0.17,0.34-0.266
			c0.102-0.092,0.185-0.213,0.262-0.324c0.019-0.028,0.038-0.056,0.054-0.085C338.371,107.943,338.364,107.722,338.31,107.465z"/>
		<path style="fill:#E2A571;" d="M247.158,196.687c-0.008-0.057-0.017-0.114-0.028-0.171c0.019,0.136,0.022,0.167,0.011,0.093
			c-0.047-0.089-0.028-0.221-0.06-0.323c-0.031-0.101-0.079-0.197-0.127-0.29c-0.15-0.301-0.518-0.334-0.79-0.201
			c-0.086-0.136-0.172-0.271-0.257-0.409c-0.11-0.18-0.217-0.36-0.317-0.546c-0.042-0.079-0.084-0.159-0.124-0.24
			c-0.032-0.064-0.231-0.413-0.058-0.112c-0.206-0.359-0.302-0.8-0.427-1.191c-0.147-0.461-0.332-0.97-0.617-1.358
			c-0.186-0.254-0.435-0.422-0.762-0.415c-0.288,0.006-0.618,0.176-0.743,0.448c-0.15,0.329-0.233,0.62-0.245,0.985
			c-0.011,0.319-0.006,0.624,0.052,0.94c0.085,0.458,0.211,0.911,0.367,1.35c0.182,0.512,0.4,1.022,0.66,1.5
			c0.268,0.493,0.628,0.933,0.98,1.367c0.292,0.36,0.847,0.394,1.257,0.302c0.65-0.146,1.264-0.797,1.253-1.474
			C247.184,196.854,247.171,196.774,247.158,196.687z"/>
		<path style="fill:#E2A571;" d="M251.187,197.621c-0.058-0.107-0.12-0.211-0.18-0.317c-0.1-0.176-0.23-0.326-0.365-0.476
			c-0.087-0.097-0.167-0.193-0.27-0.272c-0.212-0.163-0.422-0.329-0.637-0.487c-0.113-0.083-0.235-0.137-0.361-0.197
			c-0.049-0.023-0.098-0.048-0.148-0.07c-0.131-0.058-0.248-0.063-0.369-0.05c-0.028-0.025-0.056-0.05-0.084-0.075
			c-0.161-0.142-0.472,0.006-0.382,0.234c0.017,0.042,0.033,0.085,0.05,0.127c-0.053,0.101-0.089,0.202-0.082,0.333
			c0.002,0.043,0.008,0.087,0.012,0.13c0.015,0.16,0.025,0.326,0.062,0.483c0.054,0.229,0.139,0.462,0.215,0.685
			c0.064,0.187,0.159,0.361,0.252,0.535c0.097,0.181,0.217,0.328,0.351,0.487c0.078,0.091,0.155,0.183,0.233,0.275
			c0.227,0.268,0.572,0.375,0.913,0.362c0.215-0.008,0.411-0.085,0.578-0.22c0.177-0.143,0.25-0.295,0.333-0.507
			C251.441,198.264,251.354,197.926,251.187,197.621z"/>
		<path style="fill:#31161A;" d="M320.706,267.086c-0.242-0.112-0.487-0.217-0.729-0.329c-0.363-0.525-0.8-1.007-1.249-1.504
			c-0.835-0.927-1.694-1.823-2.635-2.644c-1.897-1.654-4.018-3.083-6.188-4.353c-4.545-2.66-9.483-4.603-14.34-6.607
			c-11.256-4.644-22.738-9.022-34.738-11.308c-3.241-0.618-6.514-1.074-9.803-1.349c-2.667-0.223-5.586-0.442-8.291-0.006
			c-0.479-1.544-1.203-3.034-1.954-4.461c-0.788-1.496-1.656-2.955-2.543-4.393c-1.523-2.469-3.587-5.811-7.018-4.98
			c-2.979,0.721-4.425,4.213-4.118,7.015c0.286,2.608,1.733,4.896,3.87,6.345c-0.109,0.024-0.22,0.038-0.328,0.065
			c-2.747,0.685-5.635,2.513-6.738,5.221c-0.551,1.352-0.684,2.906-0.013,4.243c0.724,1.445,2.253,2.033,3.798,2.009
			c2.977-0.046,6.016-1.049,8.59-2.503c1.458-0.824,2.817-1.859,4.012-3.033c0.05-0.049,0.101-0.101,0.151-0.151
			c0.017,0.442,0.014,0.885-0.016,1.326c-0.112,1.604-0.555,3.079-1.072,4.594c-0.2,0.586-0.415,1.909,0.492,2.046
			c0.904,0.136,1.517-0.791,1.889-1.468c0.8-1.458,1.099-3.404,1.047-5.052c-0.028-0.89-0.134-1.868-0.373-2.802
			c0.117,0.051,0.239,0.094,0.357,0.143c0.38,0.696,0.694,1.419,0.922,2.181c0.264,0.884,0.392,1.746,0.526,2.644
			c0.131,0.883,0.061,1.992,0.609,2.747c0.256,0.352,0.659,0.374,0.983,0.104c0.83-0.689,0.855-2.078,0.841-3.071
			c-0.015-1.109-0.302-2.24-0.672-3.281c-0.029-0.081-0.069-0.158-0.1-0.238c0.556,0.172,1.108,0.341,1.648,0.515
			c2.656,0.855,5.303,1.735,7.943,2.639c5.141,1.761,10.289,3.512,15.413,5.32c10.233,3.612,20.382,7.4,30.365,11.661
			c5.643,2.408,11.235,4.931,16.797,7.521c1.344,0.626,2.978,0.291,3.734-1.069C322.457,269.593,322.056,267.715,320.706,267.086z
			 M237.64,242.469c-0.79,0.746-1.656,1.391-2.583,1.958c-1.832,1.121-3.907,1.904-6.039,2.204
			c-0.522,0.073-1.104,0.162-1.633,0.122c-0.178-0.014-0.299-0.037-0.466-0.092c0.023,0.008-0.079-0.082-0.098-0.114
			c-0.016-0.026-0.066-0.133-0.099-0.314c0.015,0.011,0.001-0.382,0.007-0.443c0.02-0.213,0.166-0.694,0.298-0.948
			c0.928-1.773,2.929-2.716,4.78-3.18c1.338-0.336,2.732-0.366,4.104-0.281c0.78,0.049,1.651,0.217,2.507,0.273
			C238.163,241.929,237.914,242.21,237.64,242.469z M235.8,237.309c-2.215-0.282-4.426-1.458-5.348-3.583
			c-0.727-1.676-0.707-4.159,0.921-5.322c0.783-0.56,1.485-0.299,2.156,0.339c0.882,0.839,1.493,1.951,2.131,2.974
			c0.874,1.399,1.699,2.825,2.504,4.264c0.239,0.427,0.477,0.856,0.716,1.284C237.853,237.278,236.83,237.44,235.8,237.309z
			 M290.022,254.362c-10.274-3.815-20.7-7.451-31.35-10.071c-3.048-0.75-6.099-1.487-9.159-2.185
			c-1.716-0.391-3.543-0.912-5.367-1.189c1.752,0.117,3.523,0.121,5.27,0.265c2.946,0.243,5.87,0.568,8.784,1.071
			c5.791,0.999,11.482,2.525,17.066,4.344c5.669,1.847,11.234,3.999,16.748,6.266c4.883,2.008,9.84,3.959,14.511,6.433
			c2.352,1.246,4.618,2.635,6.634,4.383C305.542,260.342,297.814,257.255,290.022,254.362z"/>
		<path style="fill:#C1C3C4;" d="M319.286,246.645c-0.553-0.65-1.169-1.25-1.82-1.8c-1.463-1.238-3.137-2.431-4.873-3.26
			c-0.876-0.418-1.802-0.872-2.768-1.012c-0.262-0.038-0.528-0.056-0.794-0.054c-0.219-0.059-0.431-0.13-0.656-0.177
			c-2.068-0.427-5.683-0.744-6.356,1.935c-0.524,2.085,1.291,3.97,2.928,4.944c1.111,0.661,2.374,1.009,3.516,1.608
			c1.668,0.876,3.025,2.06,4.885,2.575c1.76,0.488,4.798,0.897,6.152-0.673C320.618,249.434,320.318,247.857,319.286,246.645z"/>
		<path style="fill:#C1C3C4;" d="M296.843,237.83c-0.133-0.54-0.432-0.957-0.796-1.36c-0.252-0.28-0.583-0.486-0.891-0.696
			c-0.497-0.34-1.049-0.555-1.611-0.767c-0.385-0.145-0.787-0.239-1.195-0.286c-0.308-0.089-0.614-0.096-0.918-0.021
			c-0.306,0.021-0.589,0.118-0.849,0.292c-0.09,0.072-0.179,0.145-0.269,0.217c-0.146,0.053-0.292,0.104-0.43,0.186
			c-0.782,0.468-1.293,1.371-1.244,2.291c0.018,0.333,0.057,0.7,0.18,1.018c0.237,0.614,0.427,0.928,0.877,1.418
			c0.108,0.118,0.228,0.224,0.355,0.322c0.279,0.215,0.573,0.451,0.89,0.619c0.332,0.177,0.695,0.313,1.052,0.429
			c0.495,0.161,1.045,0.221,1.563,0.204c0.35-0.011,0.705-0.062,1.041-0.157c0.067-0.019,0.131-0.045,0.195-0.072
			c0.24-0.103,0.506-0.192,0.723-0.341c0.449-0.307,0.798-0.636,1.068-1.115c0.06-0.107,0.113-0.273,0.147-0.36
			c0.048-0.12,0.106-0.238,0.137-0.364c0.044-0.179,0.07-0.501,0.079-0.687C296.958,238.348,296.896,238.045,296.843,237.83z"/>
		<path style="fill:#C1C3C4;" d="M256.683,255.202c-1.113,0.535-2.358,0.931-3.31,1.796c-0.901,0.819-1.646,1.807-2.487,2.686
			c-0.817,0.855-1.576,1.76-2.417,2.594c-0.415,0.412-0.778,0.877-1.169,1.312c-0.217,0.242-0.379,0.503-0.572,0.759
			c-0.086,0.113-0.204,0.262-0.325,0.27c-0.217,0.016-0.349,0.203-0.3,0.413c0.301,1.295,2.139,0.685,2.923,0.36
			c1.354-0.561,2.583-1.318,3.797-2.135c1.2-0.808,2.432-1.806,3.39-2.896c1.078-1.226,1.416-2.682,1.722-4.242
			C258.084,255.36,257.34,254.886,256.683,255.202z"/>
		<path style="fill:#C1C3C4;" d="M295.516,267.558c-0.902,0.17-1.107,1.623-1.267,2.333c-0.233,1.032-0.406,2.049-0.525,3.101
			c-0.122,1.075-0.254,2.155-0.28,3.237c-0.026,1.069-0.084,2.191,0.607,3.077c0.84,1.076,2.464,0.673,2.542-0.75
			c0.041-0.741-0.02-1.824-0.003-2.726c0.02-1.057-0.013-2.114,0.006-3.172c0.018-1.018-0.02-2.032-0.03-3.05
			C296.56,269.022,296.499,267.372,295.516,267.558z"/>
		<path style="fill:#C1C3C4;" d="M300.412,277.594c-0.044-0.203-0.136-0.408-0.248-0.581c-0.189-0.293-0.492-0.464-0.817-0.56
			c-0.267-0.079-0.575,0.023-0.763,0.22c-0.096,0.1-0.161,0.218-0.195,0.352c-0.034,0.141-0.031,0.28,0.009,0.419
			c0.03,0.069,0.049,0.141,0.061,0.215c-0.012-0.079-0.025-0.158-0.037-0.237c0.018,0.129,0.029,0.257,0.07,0.381
			c0.001,0.004,0.002,0.008,0.003,0.012c0.004,0.06,0.009,0.119,0.004,0.179c-0.005,0.049-0.014,0.097-0.015,0.141
			c0,0.012,0.006,0.028,0.007,0.042c0.008,0.056,0.006,0.113,0.005,0.169c-0.015,0.075-0.028,0.15-0.023,0.227
			c0.016,0.272,0.131,0.497,0.349,0.659c0.209,0.154,0.489,0.223,0.743,0.135c0.325-0.113,0.569-0.382,0.737-0.674
			c0.113-0.196,0.184-0.422,0.176-0.649C300.471,277.892,300.444,277.741,300.412,277.594z"/>
		<path style="fill:#C1C3C4;" d="M322.614,286.34c-0.031-0.579-0.175-1.241-0.352-1.794c-0.177-0.554-0.367-1.151-0.629-1.67
			c-0.25-0.494-0.556-0.969-0.835-1.448c-0.107-0.184-0.404-0.093-0.396,0.117c0.019,0.56-0.009,1.128,0.027,1.686
			c0.035,0.542,0.153,1.092,0.228,1.63c0.078,0.561,0.224,1.189,0.424,1.721c0.196,0.52,0.413,1.111,0.708,1.582
			c0.185,0.294,0.712,0.254,0.78-0.12C322.667,287.501,322.644,286.891,322.614,286.34z"/>
		<path style="fill:#F7E3A7;" d="M303.612,375.903c-0.03-0.189-0.304-0.274-0.449-0.171c-0.418,0.298-0.718,0.564-1.027,0.978
			c-0.351,0.471-0.699,0.932-1.02,1.425c-0.613,0.941-1.271,1.858-1.921,2.774c-0.618,0.872-1.293,1.704-2.001,2.505
			c-0.742,0.84-1.586,1.584-2.329,2.419c-0.614,0.69-1.816,2.035-1.035,3.001c0.771,0.954,2.296-0.048,3.118-0.728
			c0.828-0.684,1.513-1.585,2.173-2.428c0.745-0.949,1.45-1.932,2.099-2.949c0.664-1.042,1.219-2.107,1.694-3.247
			c0.245-0.588,0.466-1.163,0.613-1.783C303.68,377.051,303.717,376.559,303.612,375.903z"/>
		<path style="fill:#F7E3A7;" d="M291.714,390.52c0.017,0.086,0.01,0.062-0.001-0.01c-0.024-0.161-0.1-0.268-0.256-0.321
			c-0.062-0.021-0.125-0.044-0.188-0.062c-0.078-0.021-0.159-0.036-0.24-0.038c-0.098-0.001-0.189,0.021-0.273,0.068
			c-0.106,0.047-0.112,0.051-0.019,0.009c-0.227,0.102-0.453,0.205-0.676,0.316c-0.449,0.223-0.833,0.601-1.205,0.936
			c-0.159,0.144-0.332,0.286-0.468,0.453c-0.188,0.23-0.345,0.49-0.499,0.743c-0.307,0.503-0.567,1.166-0.339,1.746
			c0.114,0.29,0.399,0.58,0.745,0.541c0.129-0.014,0.263-0.022,0.388-0.054c0.238-0.06,0.41-0.234,0.591-0.384
			c0.029-0.024,0.059-0.049,0.088-0.072c0.021-0.016,0.041-0.033,0.062-0.05c0.122-0.099,0.209-0.211,0.308-0.331
			c0.132-0.159,0.271-0.31,0.405-0.467c0.193-0.228,0.335-0.491,0.496-0.741c0.11-0.171,0.224-0.339,0.342-0.505
			c0.026-0.036,0.052-0.072,0.078-0.108c0.002-0.002,0,0,0.002-0.003c0.001-0.001,0.001-0.002,0.002-0.003l0.007-0.009
			c0.047-0.065,0.035-0.051,0.015-0.023c0.093-0.123,0.178-0.242,0.249-0.379c0.091-0.176,0.185-0.349,0.284-0.521
			c0.13-0.225,0.161-0.408,0.116-0.665C291.721,390.563,291.718,390.542,291.714,390.52z"/>
		<path style="fill:#F7E3A7;" d="M192.555,368.356c-0.132-0.205-0.307-0.389-0.461-0.578c-0.079-0.097-0.093-0.113-0.041-0.049
			c0.084,0.105,0.038,0.048-0.138-0.171c-0.443-0.548-0.962-1.032-1.443-1.547c-0.811-0.868-1.634-1.81-2.332-2.696
			c-0.749-0.951-1.499-1.927-2.136-2.958c-0.501-0.813-1.032-3.062-2.376-2.364c-0.62,0.322-0.706,1.169-0.693,1.799
			c0.013,0.648,0.243,1.355,0.466,1.959c0.465,1.267,1.174,2.432,1.881,3.577c0.667,1.08,1.377,2.133,2.127,3.157
			c0.947,1.291,2.043,3.095,3.831,3.106c1.011,0.006,1.687-0.878,1.735-1.815C193.001,369.279,192.824,368.771,192.555,368.356z"/>
		<g>
			<path style="fill:#F7E3A7;" d="M198.789,374.95c-0.043-0.313-0.066-0.627-0.261-0.89c-0.296-0.399-0.633-0.867-1.078-1.108
				c-0.143-0.078-0.288-0.152-0.435-0.223c-0.212-0.102-0.445-0.233-0.672-0.289c-0.201-0.049-0.451-0.08-0.656-0.085
				c-0.221-0.005-0.374,0.107-0.537,0.231c-0.015,0.012-0.031,0.025-0.046,0.037c-0.071,0.064-0.124,0.14-0.148,0.236
				c-0.043,0.175-0.074,0.35-0.02,0.529c0.051,0.169,0.168,0.33,0.251,0.486c0.133,0.249,0.356,0.467,0.549,0.686
				c0.108,0.147,0.216,0.303,0.339,0.421c0.129,0.123,0.282,0.225,0.431,0.328c0.282,0.222,0.555,0.468,0.914,0.545
				c0.244,0.052,0.489,0.141,0.739,0.149c0.271,0.008,0.598-0.232,0.64-0.511C198.829,375.303,198.814,375.137,198.789,374.95z"/>
			<path style="fill:#F7E3A7;" d="M195.125,372.603c0.008-0.006,0.017-0.011,0.025-0.017c0.028-0.023,0.057-0.046,0.085-0.069
				C195.198,372.546,195.162,372.575,195.125,372.603z"/>
		</g>
		<path style="fill:#CE6337;" d="M261.722,372.35c-1.223-1.133-3.084-0.984-4.382-0.068c-0.838,0.591-1.617,1.327-2.366,2.027
			c-1.317,1.23-2.541,2.559-3.659,3.972c-0.747,0.945-1.624,1.914-1.987,3.084c-0.533,1.713,0.448,3.721,2.27,4.104
			c1.311,0.276,2.43-0.215,3.565-0.805c0.715-0.372,1.406-0.782,2.067-1.243c1.559-1.089,2.893-2.346,3.998-3.892
			c0.536-0.75,0.89-1.612,1.157-2.492c0.139-0.458,0.212-0.939,0.202-1.407C262.843,374.442,262.698,373.254,261.722,372.35z"/>
		<path style="fill:#CE6337;" d="M275.484,358.709c-0.156-0.251-0.364-0.45-0.622-0.595c-0.268-0.147-0.555-0.218-0.861-0.212
			c-0.306,0.008-0.589,0.091-0.85,0.251c-0.27,0.148-0.512,0.353-0.742,0.553c-0.065,0.056-0.126,0.116-0.185,0.178
			c-0.036,0.038-0.068,0.081-0.103,0.121c-0.037,0.021-0.077,0.032-0.113,0.056c-0.086,0.039-0.165,0.102-0.245,0.153
			c-0.124,0.08-0.218,0.159-0.341,0.258c-0.253,0.172-0.451,0.397-0.593,0.675c-0.093,0.189-0.169,0.384-0.23,0.585
			c-0.102,0.403-0.111,0.904,0.034,1.3l0.249,0.555c0.126,0.155,0.251,0.311,0.377,0.466c0.161,0.118,0.322,0.237,0.483,0.356
			c0.273,0.165,0.566,0.251,0.878,0.259c0.209,0.051,0.417,0.047,0.623-0.014c0.211-0.005,0.408-0.063,0.588-0.173
			c0.197-0.06,0.368-0.165,0.511-0.313c0.085-0.058,0.155-0.131,0.228-0.201c0.002,0.004,0.004,0.008,0.005,0.012
			c0.014-0.015,0.023-0.034,0.037-0.049c0.11-0.113,0.206-0.24,0.285-0.382c0.017-0.027,0.04-0.049,0.057-0.076
			c0.128-0.21,0.193-0.436,0.228-0.67c0.003-0.011,0.006-0.022,0.009-0.034c0.08-0.178,0.152-0.359,0.223-0.541
			c0.05-0.128,0.089-0.26,0.116-0.394c0.028-0.136,0.072-0.267,0.102-0.402c0.016-0.073,0.028-0.147,0.037-0.221
			c0.027-0.215,0.057-0.433,0.066-0.65C275.727,359.253,275.643,358.97,275.484,358.709z"/>
		<path style="fill:#CE6337;" d="M243.641,362.67c-0.066-0.253-0.188-0.473-0.365-0.658c-0.143-0.21-0.33-0.374-0.561-0.492
			c-0.309-0.17-0.641-0.252-0.994-0.245c-0.268,0.023-0.54,0.06-0.8,0.13c-0.244,0.066-0.475,0.187-0.702,0.292
			c-0.048,0.022-0.09,0.047-0.133,0.078c-0.165,0.119-0.323,0.252-0.476,0.382c-0.075,0.064-0.145,0.133-0.209,0.208
			c-0.11,0.13-0.221,0.267-0.32,0.412c-0.131,0.106-0.262,0.212-0.393,0.318c-0.202,0.194-0.271,0.33-0.377,0.521
			c-0.074,0.186-0.147,0.372-0.221,0.558c-0.09,0.31-0.096,0.617-0.021,0.923c0.005,0.209,0.062,0.402,0.171,0.58
			c0.059,0.195,0.162,0.363,0.309,0.504c0.107,0.172,0.248,0.307,0.424,0.406c0.228,0.199,0.493,0.331,0.796,0.396
			c0.215,0.026,0.561,0.081,0.664,0.074c0.207-0.033,0.414-0.065,0.621-0.098c0.199-0.073,0.392-0.16,0.577-0.261
			c0.347-0.216,0.621-0.502,0.821-0.859c0.009-0.016,0.011-0.033,0.019-0.049c0.13-0.171,0.254-0.347,0.373-0.526
			c0.076-0.103,0.156-0.203,0.231-0.307c0.058-0.081,0.112-0.164,0.161-0.251c0.18-0.312,0.308-0.659,0.426-0.996
			C243.75,363.362,243.742,363.015,243.641,362.67z"/>
		<path style="fill:#CE6337;" d="M213.778,362.501c-0.441-1.445-1.908-2.228-3.341-2.264c-0.505-0.013-1.05,0.084-1.521,0.267
			c-0.651,0.253-1.139,0.572-1.67,1.019c-0.136,0.115-0.26,0.241-0.384,0.367c-0.231,0.154-0.466,0.303-0.684,0.475
			c-0.608,0.479-1.272,0.97-1.606,1.697c-0.327,0.712-0.492,1.502-0.247,2.275c0.238,0.752,0.708,1.354,1.379,1.763
			c0.299,0.182,0.646,0.319,0.994,0.378c0.381,0.064,0.805,0.121,1.196,0.076c0.608-0.069,1.232-0.167,1.814-0.364
			c1.117-0.379,2.226-0.957,2.986-1.881c0.479-0.582,0.824-1.115,1.081-1.82C214.003,363.864,213.971,363.132,213.778,362.501z"/>
		<path style="fill:#CE6337;" d="M221.947,372.761c-0.047-0.104-0.094-0.209-0.141-0.314c-0.087-0.152-0.203-0.274-0.35-0.364
			c-0.084-0.08-0.183-0.135-0.296-0.164c-0.16-0.079-0.331-0.114-0.513-0.103c-0.122-0.014-0.243,0.005-0.364,0.055
			c-0.143,0.044-0.269,0.115-0.387,0.199c-0.021,0.016-0.042,0.032-0.065,0.047c-0.118,0.074-0.166,0.092-0.31,0.243
			c-0.13,0.136-0.188,0.235-0.239,0.351c0.006-0.015,0.012-0.03,0.018-0.045c-0.027,0.065-0.06,0.126-0.101,0.182
			c-0.005,0.007-0.011,0.014-0.016,0.021c-0.086,0.142-0.13,0.293-0.134,0.455c-0.024,0.214-0.026,0.113,0.007,0.325
			c0.003,0.108,0.032,0.209,0.089,0.301c0.052,0.148,0.137,0.275,0.257,0.381c0.068,0.081,0.152,0.144,0.254,0.189l0.293,0.116
			c0.012,0.002,0.023,0.004,0.035,0.006c0.132,0.02,0.264,0.034,0.397,0.044c0.05,0.004,0.101,0.003,0.151-0.002
			c0.121-0.019,0.242-0.038,0.362-0.057c0.115-0.043,0.228-0.094,0.337-0.15c0.091-0.074,0.182-0.147,0.273-0.221
			c0.007-0.007,0.013-0.014,0.02-0.022c0.09-0.104,0.18-0.236,0.252-0.336c0.015-0.021,0.03-0.043,0.044-0.065
			c0.038-0.062,0.051-0.112,0.082-0.192c0.08-0.161,0.115-0.334,0.104-0.518C222.011,372.996,221.991,372.875,221.947,372.761z"/>
		<g>
			<path style="fill:#CE6337;" d="M257.206,340.033c0.051,0.063,0.101,0.125,0.152,0.188
				C257.305,340.155,257.256,340.093,257.206,340.033z"/>
			<path style="fill:#CE6337;" d="M257.139,339.951c0.026,0.023,0.042,0.056,0.066,0.081l0.001,0.001
				C257.184,340.006,257.162,339.978,257.139,339.951z"/>
			<path style="fill:#CE6337;" d="M257.673,340.815c-0.095-0.29-0.255-0.561-0.468-0.783c-0.138-0.165-0.28-0.308-0.496-0.413
				c-0.135-0.066-0.278-0.133-0.427-0.161c-0.134-0.025-0.277-0.039-0.413-0.047c-0.028-0.002-0.055-0.002-0.083,0
				c-0.159,0.012-0.324,0.031-0.477,0.08c-0.076,0.025-0.152,0.064-0.223,0.095c-0.07,0.031-0.145,0.061-0.212,0.1
				c-0.025,0.014-0.048,0.03-0.071,0.047c-0.103,0.076-0.204,0.159-0.3,0.243c-0.05,0.043-0.091,0.094-0.133,0.146
				c0.008-0.011,0.016-0.021,0.023-0.032c-0.009,0.012-0.019,0.025-0.028,0.037c-0.025,0.031-0.049,0.062-0.073,0.095
				c-0.027,0.035-0.05,0.071-0.076,0.107c-0.003,0.004-0.006,0.008-0.009,0.013c-0.02,0.019-0.044,0.034-0.063,0.054
				c-0.342,0.357-0.528,0.842-0.517,1.335c0.011,0.492,0.222,0.986,0.587,1.321c0.316,0.29,0.599,0.435,1.007,0.56
				c0.34,0.083,0.678,0.076,1.014-0.023c0.172-0.053,0.33-0.13,0.477-0.224c0.098-0.078,0.231-0.178,0.33-0.267
				c0.007-0.007,0.016-0.012,0.023-0.019c0.002-0.002,0.004-0.004,0.006-0.006c0.004-0.004,0.01-0.008,0.013-0.011
				c0.006-0.005,0.011-0.011,0.017-0.017c0.006-0.006,0.011-0.013,0.017-0.019c0.049-0.065,0.097-0.131,0.145-0.196
				c0.05-0.064,0.098-0.128,0.143-0.195c0.017-0.028,0.028-0.058,0.044-0.087c0.023-0.032,0.046-0.064,0.059-0.086
				c0.007-0.011,0.013-0.022,0.018-0.034c0.031-0.064,0.077-0.194,0.082-0.207c-0.003,0.006,0.062-0.143,0.082-0.209
				c0.004-0.012,0.007-0.024,0.009-0.036c0.001-0.006,0.002-0.012,0.003-0.017c0.016-0.091,0.03-0.217,0.039-0.329
				c0.001-0.009,0.002-0.018,0.002-0.027c0.002-0.024,0.005-0.053,0.007-0.074c0.001-0.014,0.002-0.027,0.001-0.042
				c-0.001,0.01-0.002,0.02-0.003,0.03C257.766,341.287,257.755,341.064,257.673,340.815z"/>
		</g>
		<path style="fill:#CE6337;" d="M270.242,338.718c-0.637-0.695-1.71-0.883-2.577-0.563c-0.557,0.205-1.065,0.541-1.544,0.885
			c-0.064,0.046-0.121,0.102-0.184,0.149c-0.128,0.039-0.255,0.081-0.382,0.134c-0.37,0.154-0.765,0.293-1.1,0.513
			c-0.206,0.136-0.407,0.281-0.604,0.43c-0.527,0.4-1.007,0.817-1.447,1.306c-0.448,0.497-0.851,1.035-1.238,1.58
			c-0.576,0.811-0.741,1.883-0.519,2.839c0.319,1.373,1.639,2.224,2.998,2.233c0.836,0.006,1.665-0.403,2.389-0.766
			c0.952-0.478,1.828-1.154,2.587-1.896c0.828-0.81,1.362-1.805,1.783-2.87C270.923,341.38,271.314,339.888,270.242,338.718z"/>
		<path style="fill:#CE6337;" d="M295.995,340.835c-0.104-0.296-0.276-0.551-0.515-0.764c-0.165-0.122-0.331-0.244-0.496-0.366
			c-0.38-0.209-0.788-0.31-1.223-0.301c-0.144-0.007-0.284,0.002-0.427,0.022c-0.331,0.048-0.678,0.08-0.996,0.195
			c-0.301,0.109-0.599,0.241-0.879,0.397c-0.205,0.115-0.381,0.263-0.564,0.411c-0.107,0.087-0.255,0.187-0.351,0.298
			c-0.16,0.186-0.302,0.393-0.441,0.594c-0.079,0.115-0.15,0.235-0.209,0.361c-0.128,0.274-0.248,0.562-0.33,0.854
			c-0.026,0.095-0.041,0.195-0.058,0.294c-0.073,0.097-0.141,0.204-0.204,0.33c-0.03,0.06-0.057,0.122-0.083,0.183
			c-0.135,0.314-0.261,0.634-0.377,0.955c-0.028,0.249-0.055,0.497-0.083,0.745c0.039,0.247,0.078,0.494,0.116,0.74
			c0.099,0.22,0.198,0.441,0.297,0.661c0.183,0.322,0.428,0.578,0.737,0.768c0.178,0.169,0.386,0.284,0.624,0.345
			c0.221,0.122,0.457,0.18,0.709,0.175c0.249,0.061,0.497,0.055,0.743-0.017c0.371-0.025,0.715-0.144,1.031-0.355
			c0.947-0.608,1.731-1.483,2.283-2.46c0.268-0.474,0.472-0.997,0.636-1.514c0.17-0.538,0.223-1.069,0.286-1.631
			C296.228,341.426,296.152,341.118,295.995,340.835z"/>
		<path style="fill:#F0CB6A;" d="M222.007,275.346c-0.08-1.707-1.788-3.085-3.48-2.506c-0.606,0.207-1.19,0.572-1.743,0.981
			c-0.319,0.194-0.624,0.413-0.909,0.637c-1.001,0.787-1.928,1.649-2.736,2.635c-0.179,0.219-0.353,0.443-0.523,0.67
			c-0.553,0.685-1.074,1.396-1.536,2.146c-0.549,0.891-1.014,1.827-1.404,2.798c-0.566,1.407-1.193,2.961-0.265,4.372
			c0.495,0.752,1.447,1.265,2.354,1.173c0.773-0.078,1.388-0.503,2.009-0.934c0.97-0.672,1.896-1.421,2.759-2.225
			c1.651-1.538,3.024-3.359,4.101-5.34c0.526-0.968,1.153-2.09,1.405-3.166C222.138,276.161,222.112,275.742,222.007,275.346z"/>
		<path style="fill:#F0CB6A;" d="M230.798,273.006c-0.047-0.299-0.04-0.28-0.162-0.551c-0.129-0.288-0.226-0.464-0.482-0.7
			c-0.068-0.063-0.324-0.254-0.403-0.296c-0.012-0.006-0.024-0.011-0.036-0.017c-0.324-0.155-0.658-0.266-1.025-0.251
			c-0.496,0.02-0.961,0.186-1.365,0.47c-0.402,0.282-0.79,0.605-1.087,1c-0.007,0.009-0.015,0.019-0.022,0.028
			c-0.271,0.155-0.542,0.324-0.743,0.561c-0.314,0.331-0.528,0.717-0.641,1.159c-0.026,0.23-0.051,0.461-0.077,0.691
			c0.012,0.468,0.14,0.902,0.383,1.301c0.17,0.298,0.398,0.536,0.684,0.713c0.256,0.224,0.553,0.372,0.892,0.444
			c0.347,0.1,0.692,0.108,1.035,0.023c0.345-0.023,0.664-0.133,0.957-0.329c0.175-0.117,0.321-0.236,0.455-0.368
			c0.038-0.037,0.075-0.077,0.11-0.116c0.023-0.027,0.052-0.048,0.074-0.078c0.046-0.061,0.091-0.123,0.137-0.185
			c0.27-0.366,0.528-0.66,0.633-1.121c0.014-0.023,0.031-0.044,0.045-0.067c0.093-0.154,0.158-0.327,0.255-0.476
			c0.163-0.251,0.289-0.538,0.353-0.829c0.049-0.222,0.081-0.453,0.075-0.679C230.842,273.225,230.813,273.102,230.798,273.006z"/>
		<path style="fill:#F0CB6A;" d="M289.192,372.765c-0.566-0.746-1.621-1.398-2.604-0.992c-4.062,1.68-7.857,3.914-11.177,6.808
			c-1.618,1.41-3.249,3.188-3.928,5.262c-0.861,2.63,1.317,5.132,4.02,4.801c1.998-0.244,3.852-1.37,5.408-2.599
			c1.601-1.263,3.013-2.703,4.316-4.27c0.635-0.764,1.247-1.547,1.853-2.333c0.596-0.772,1.18-1.534,1.572-2.423
			C289.502,375.745,290.247,374.154,289.192,372.765z"/>
		<path style="fill:#F0CB6A;" d="M298.524,365.812c-0.068-0.151-0.136-0.303-0.204-0.454c-0.125-0.221-0.294-0.397-0.506-0.527
			c-0.122-0.116-0.265-0.195-0.429-0.237c-0.152-0.084-0.314-0.124-0.487-0.12c-0.171-0.042-0.341-0.038-0.51,0.011
			c-0.255,0.017-0.491,0.098-0.708,0.244c-0.307,0.172-0.585,0.418-0.845,0.649c-0.16,0.142-0.307,0.298-0.44,0.465
			c-0.141,0.177-0.275,0.36-0.404,0.547c-0.018,0.01-0.034,0.022-0.052,0.032c-0.553,0.32-0.952,0.874-1.11,1.489
			c-0.093,0.362-0.124,0.93,0.02,1.293c0.001,0.002,0.001,0.003,0.001,0.005c0.001,0.002,0.001,0.006,0.002,0.008h0.001
			c0.058,0.194,0.141,0.381,0.25,0.561c0.126,0.162,0.255,0.321,0.387,0.478c0.306,0.291,0.664,0.489,1.074,0.594
			c0.618,0.158,1.346,0.076,1.885-0.282c0.065-0.043,0.126-0.09,0.187-0.138c0.163-0.128,0.38-0.296,0.555-0.451
			c0.256-0.226,0.558-0.795,0.614-1.126c0.018-0.107,0.034-0.211,0.047-0.313c0.004-0.006,0.008-0.012,0.011-0.019
			c0.108-0.192,0.202-0.391,0.286-0.594c0.147-0.36,0.295-0.72,0.395-1.096l0.057-0.511L298.524,365.812z"/>
		<path style="fill:#31161A;" d="M256.859,295.395c-1.966-1.047-4.116,0.229-5.397,1.734c-1.019,1.197-1.787,2.636-2.111,4.183
			c-0.162,0.772-0.251,1.587-0.212,2.377c0.047,0.948,0.217,1.942,0.735,2.754c0.895,1.403,2.637,1.804,4.116,1.14
			c0.82-0.368,1.546-0.994,2.137-1.671c1.034-1.183,1.763-2.614,2.039-4.168c0.11-0.618,0.178-1.258,0.169-1.891
			c0.079-0.317,0.147-0.638,0.184-0.975C258.675,297.482,258.155,296.086,256.859,295.395z"/>
		<path style="fill:#31161A;" d="M285.541,305.342c-1.966-1.047-4.116,0.229-5.397,1.734c-1.019,1.197-1.787,2.636-2.111,4.183
			c-0.162,0.772-0.251,1.587-0.212,2.377c0.047,0.948,0.217,1.942,0.735,2.754c0.895,1.403,2.637,1.804,4.116,1.14
			c0.82-0.368,1.546-0.995,2.137-1.671c1.034-1.183,1.763-2.614,2.039-4.168c0.11-0.618,0.178-1.258,0.169-1.891
			c0.079-0.317,0.147-0.638,0.184-0.975C287.357,307.429,286.837,306.033,285.541,305.342z"/>
		<path style="fill:#31161A;" d="M272.486,312.605c-0.26-0.423-0.732-0.679-1.228-0.668c-0.623,0.014-1.078,0.444-1.39,0.943
			c-0.127,0.203-0.24,0.414-0.371,0.616c-0.024,0.037-0.038,0.06-0.05,0.08c-0.017,0.016-0.039,0.038-0.072,0.074
			c-0.066,0.07-0.126,0.145-0.192,0.215c-0.099,0.105-0.205,0.202-0.309,0.302c-0.025,0.024-0.038,0.037-0.054,0.053
			c-0.009,0.006-0.022,0.014-0.045,0.032c-0.252,0.187-0.517,0.347-0.795,0.493c-0.012,0.006-0.045,0.02-0.077,0.034
			c-0.126,0.05-0.253,0.096-0.382,0.135c-0.115,0.035-0.23,0.066-0.347,0.092c-0.038,0.009-0.163,0.028-0.194,0.034
			c-0.587,0.065-0.904,0.03-1.383-0.093c-0.941-0.24-1.856-0.852-2.393-1.724c-0.311-0.505-0.508-1.081-0.603-1.667
			c-0.129-0.8-0.043-1.723-0.42-2.448c-0.265-0.51-1.003-0.521-1.372-0.145c-0.524,0.532-0.622,1.404-0.666,2.124
			c-0.041,0.68,0.091,1.404,0.272,2.057c0.336,1.214,1.041,2.357,2.013,3.163c2.004,1.662,4.715,2.014,7.064,0.896
			c1.1-0.523,2.015-1.374,2.691-2.38C272.613,314.182,272.93,313.328,272.486,312.605z"/>
		<path style="fill:#FFFFFF;" d="M259.503,297.193c0.019,0.12,0.038,0.24,0.056,0.36c-0.009-0.093-0.022-0.179-0.038-0.274
			c-0.014-0.09-0.022-0.185-0.052-0.272c-0.047-0.137-0.112-0.272-0.177-0.4c-0.017-0.034-0.037-0.067-0.06-0.099
			c-0.083-0.115-0.174-0.23-0.272-0.335c-0.025-0.026-0.051-0.051-0.08-0.073c-0.11-0.087-0.224-0.179-0.346-0.251
			c-0.127-0.075-0.274-0.12-0.41-0.171c-0.183-0.069-0.383-0.077-0.575-0.096c-0.091-0.009-0.181-0.008-0.271,0.003
			c-0.192,0.024-0.389,0.049-0.575,0.104c-0.043,0.013-0.085,0.027-0.126,0.042c-0.009,0.004-0.019,0.007-0.028,0.011
			c-0.065,0.026-0.243,0.099-0.304,0.136c-0.041,0.033-0.082,0.067-0.124,0.1c-0.134,0.091-0.238,0.21-0.313,0.356
			c-0.04,0.1-0.079,0.2-0.119,0.3l-0.004,0.022c-0.027,0.156-0.047,0.318-0.05,0.476c0,0.011-0.001,0.022,0,0.034
			c0,0.008,0,0.015,0,0.023c0.01,0.064,0.02,0.127,0.03,0.191c-0.025,0.122-0.048,0.244-0.045,0.381
			c0.007,0.314,0.103,0.645,0.267,0.913c0.087,0.143,0.202,0.284,0.331,0.399c0.255,0.228,0.557,0.41,0.896,0.483
			c0.396,0.086,0.638,0.063,1.03-0.022c0.03-0.007,0.059-0.017,0.087-0.028c0.145-0.059,0.306-0.117,0.443-0.204
			c0.132-0.084,0.255-0.187,0.368-0.295c0.067-0.064,0.116-0.143,0.17-0.217c0.053-0.072,0.117-0.143,0.155-0.226
			c0.06-0.133,0.132-0.278,0.161-0.426C259.597,297.802,259.593,297.523,259.503,297.193z"/>
		<path style="fill:#FFFFFF;" d="M288.98,308.229c0.003-0.051,0.001-0.103-0.004-0.154c-0.016-0.15-0.042-0.302-0.07-0.45
			c-0.005-0.027-0.011-0.055-0.019-0.082c-0.044-0.16-0.135-0.337-0.201-0.473c-0.094-0.195-0.241-0.376-0.398-0.522
			c-0.02-0.019-0.042-0.036-0.063-0.052c-0.109-0.083-0.218-0.174-0.336-0.244c-0.022-0.013-0.044-0.024-0.067-0.034
			c-0.13-0.059-0.268-0.116-0.405-0.158c-0.245-0.06-0.49-0.055-0.732,0.016c-0.232,0.071-0.432,0.193-0.6,0.368
			c-0.027,0.027-0.045,0.062-0.07,0.091c-0.008,0.007-0.017,0.013-0.025,0.02c-0.061,0.049-0.122,0.098-0.183,0.148
			c-0.018,0.016-0.035,0.032-0.051,0.051c-0.008,0.009-0.015,0.019-0.023,0.029c-0.092,0.118-0.198,0.253-0.279,0.379
			c-0.013,0.02-0.024,0.039-0.034,0.06c-0.206,0.412-0.263,0.694-0.287,1.151c-0.006,0.124,0.025,0.252,0.044,0.371
			c0.02,0.128,0.028,0.243,0.075,0.36c0.021,0.051,0.127,0.329,0.212,0.463c0.006,0.01,0.013,0.02,0.02,0.029
			c0.072,0.102,0.208,0.272,0.293,0.363c0.016,0.018,0.033,0.033,0.052,0.049c0.118,0.097,0.237,0.199,0.371,0.273
			c0.245,0.136,0.414,0.178,0.637,0.2c0.107,0.016,0.215,0.029,0.322,0.024c0.013,0,0.025-0.002,0.037-0.003
			c0.152-0.023,0.304-0.047,0.457-0.072c0.132-0.059,0.264-0.118,0.396-0.177c0.272-0.152,0.465-0.412,0.626-0.669
			c0.016-0.026,0.03-0.053,0.042-0.081c0.073-0.163,0.167-0.356,0.196-0.544c0.027-0.174,0.05-0.347,0.046-0.522
			C288.965,308.366,288.977,308.297,288.98,308.229z"/>
		<path style="fill:#CE6337;" d="M252.744,320.56c-0.447-0.015-0.8,0.181-1.184,0.364l0.486-0.218
			c-0.343,0.149-0.577,0.25-0.853,0.473c-0.416,0.337-0.584,0.711-0.769,1.205c0.067-0.169,0.134-0.338,0.201-0.507
			c-0.203,0.49-0.438,0.883-0.445,1.45c-0.01,0.801,0.635,1.597,1.414,1.773c1.111,0.251,2.477-0.437,2.897-1.498
			c0.179-0.452,0.239-0.915,0.164-1.391C254.502,321.244,253.727,320.593,252.744,320.56z"/>
		<path style="fill:#CE6337;" d="M239.705,276.991c-1.003,0.129-1.929,0.1-2.865,0.619c-1.018,0.565-1.904,1.19-2.444,2.271
			c-0.572,1.146-0.606,2.457,0.08,3.571c0.592,0.962,1.904,1.858,3.094,1.684c1.155-0.169,2.099-0.351,2.983-1.212
			c0.259-0.252,0.48-0.565,0.698-0.853c0.661-0.875,0.949-1.656,1.018-2.749c0.018-0.291,0.016-0.582,0.005-0.873
			C242.23,278.197,241.073,276.814,239.705,276.991z"/>
		<path style="fill:#CE6337;" d="M225.987,286.668c-0.09-1.195-1.145-1.993-2.322-1.688c-0.176,0.045-0.352,0.091-0.528,0.137
			c-0.734,0.19-1.37,0.868-1.534,1.604c-0.047,0.209-0.098,0.417-0.133,0.628c-0.133,0.8,0.076,1.556,0.752,2.054
			c0.659,0.486,1.478,0.487,2.191,0.105c0.186-0.1,0.365-0.215,0.546-0.325c0.648-0.395,1.127-1.189,1.069-1.964
			C226.014,287.035,226.001,286.852,225.987,286.668z"/>
		<path style="fill:#CE6337;" d="M275.813,296.954c-0.702-0.39-1.525-0.342-2.211,0.049c-0.335,0.191-0.568,0.47-0.786,0.767
			c-0.044,0.056-0.088,0.112-0.134,0.167c-0.691,0.815-0.817,1.854-0.297,2.792c0.284,0.513,0.837,0.88,1.396,1.025
			c1.029,0.267,2.027-0.251,2.57-1.114c0.337-0.536,0.647-1.175,0.588-1.819C276.869,298.037,276.523,297.349,275.813,296.954z"/>
		<path style="fill:#CE6337;" d="M302.956,303.627c-0.54-0.951-1.942-1.533-2.993-1.141c-0.402,0.15-0.814,0.26-1.186,0.49
			c-0.455,0.28-0.756,0.655-1.113,1.028c-0.899,0.936-1.553,2.181-1.384,3.529c0.133,1.062,0.463,1.886,1.344,2.535
			c0.788,0.581,1.899,0.881,2.859,0.521c1.525-0.572,2.739-1.715,2.986-3.377c0.077-0.515,0.201-1.07,0.174-1.586
			C303.606,304.896,303.31,304.25,302.956,303.627z"/>
		<path style="fill:#CE6337;" d="M196.947,352.409c-0.335-0.989-1.321-1.841-2.422-1.759c-0.742,0.054-1.343,0.245-1.916,0.708
			c-0.603,0.488-0.864,1.139-1.079,1.863c-0.319,1.071,0.273,2.445,1.277,2.948c0.419,0.21,0.869,0.319,1.338,0.33
			c0.737,0.016,1.31-0.371,1.845-0.813C196.963,354.882,197.36,353.626,196.947,352.409z"/>
		<path style="fill:#CE6337;" d="M306.324,350.526c-0.43-0.766-1.423-1.079-2.239-0.853c-0.395,0.11-0.749,0.243-1.075,0.507
			c-0.38,0.307-0.614,0.713-0.874,1.119c-0.284,0.444-0.467,0.971-0.433,1.508c0.015,0.228,0.071,0.466,0.118,0.689
			c0.028,0.13,0.068,0.441-0.01-0.125c0.09,0.65,0.491,1.49,1.258,1.577c0.314,0.035,0.641,0.098,0.959,0.081
			c0.925-0.048,1.633-0.564,2.14-1.319C306.856,352.688,306.944,351.628,306.324,350.526z"/>
		<path style="fill:#CE6337;" d="M316.943,299.905c-1.423-1.004-3.098-1.156-4.674-1.848c-1.567-0.688-3.136-1.567-4.536-2.548
			c-2.759-1.934-4.535-5.365-7.324-7.469c-6.468-4.879-14.489-1.938-21.325,0.353c-3.461,1.16-7.339,2.292-10.918,0.932
			c-2.889-1.098-5.171-3.543-6.971-5.955c-2.226-2.982-4.072-6.216-6.449-9.091c-2.318-2.805-5.455-5.526-9.097-6.367
			c-2.075-0.479-4.015-0.974-6.172-0.989c-2.415-0.016-4.817,0.35-7.225,0.481c-4.684,0.257-9.164-0.677-13.508-2.386
			c-1.052-0.414-1.89,0.943-0.874,1.564c3.407,2.081,7.319,3.206,11.283,3.626c4.149,0.439,8.399-0.477,12.488,0.519
			c3.48,0.848,6.608,3.034,8.947,5.702c2.367,2.7,4.024,5.953,6.04,8.903c2.023,2.96,4.409,5.748,7.5,7.65
			c3.649,2.245,7.841,2.506,11.977,1.761c3.931-0.708,7.588-2.388,11.478-3.247c1.526-0.337,3.04-0.511,4.689-0.444
			c0.593,0.024,1.151,0.096,1.918,0.29c0.749,0.191,1.147,0.337,1.914,0.794c1.486,0.885,2.67,2.748,3.859,4.206
			c1.404,1.72,2.999,3.159,4.832,4.422c1.702,1.173,3.587,1.974,5.584,2.517c0.988,0.269,1.993,0.455,3.01,0.575
			c0.634,0.075,1.279,0.192,1.914,0.082c0.608-0.105,1.158-0.406,1.715-0.668C318.497,302.574,318,300.651,316.943,299.905z"/>
		<path style="fill:#CB4F4F;" d="M319.872,163.278c-0.429-0.331-0.967-0.342-1.444-0.102c-0.766,0.386-1.333,1.218-1.87,1.862
			c-0.542,0.649-1.083,1.298-1.625,1.947c-0.545,0.653-1.113,1.293-1.633,1.965c-0.541,0.7-1.257,1.573-1.07,2.503
			c0.07,0.346,0.419,0.542,0.742,0.564c0.523,0.037,0.943-0.246,1.319-0.572c0.308-0.267,0.634-0.523,0.926-0.809
			c0.6-0.587,1.147-1.239,1.718-1.854c0.556-0.6,1.112-1.201,1.668-1.801c0.649-0.701,1.411-1.419,1.734-2.337
			C320.509,164.158,320.256,163.575,319.872,163.278z"/>
		<path style="fill:#CB4F4F;" d="M332.401,161.85c-0.356-0.746-1.14-1.206-1.974-0.982c-0.589,0.159-0.945,0.679-1.38,1.067
			c-2.17,1.942-3.82,4.512-5.564,6.834c-0.957,1.273-1.861,2.598-2.764,3.91c-0.45,0.654-0.855,1.343-1.274,2.018
			c-0.214,0.343-0.397,0.685-0.556,1.056c-0.148,0.344-0.22,0.81-0.403,1.118c-0.433,0.73,0.279,1.514,1.044,1.357
			c1.286-0.264,2.352-1.591,3.235-2.469c0.992-0.986,1.907-2.044,2.842-3.084c1.961-2.18,3.896-4.434,5.64-6.792
			C332.064,164.779,333.074,163.261,332.401,161.85z"/>
		<path style="fill:#CB4F4F;" d="M337.966,168.688c-0.077-0.684-0.569-1.075-1.257-0.958c-0.901,0.154-1.514,0.916-2.015,1.616
			c-0.422,0.59-0.885,1.168-1.263,1.788c-0.367,0.602-0.726,1.209-1.089,1.813c-0.204,0.339-0.341,0.706-0.491,1.072
			c-0.156,0.382-0.294,0.691-0.186,1.112c0.065,0.255,0.329,0.462,0.596,0.453c0.443-0.014,0.711-0.241,1.044-0.505
			c0.277-0.219,0.564-0.426,0.806-0.684c0.495-0.529,0.989-1.061,1.477-1.596c0.474-0.519,0.887-1.106,1.322-1.659
			C337.46,170.441,338.073,169.634,337.966,168.688z"/>
		<path style="fill:#CB4F4F;" d="M196.882,179.532c-0.756-0.756-1.924,0.098-2.445,0.712c-1.001,1.182-1.807,2.521-2.719,3.771
			c-0.482,0.661-0.956,1.319-1.411,1.998c-0.392,0.585-1.254,1.879-0.228,2.3c0.368,0.151,0.766-0.092,1.088-0.262
			c0.349-0.185,0.64-0.483,0.934-0.744c0.566-0.501,1.086-1.025,1.594-1.584c1.04-1.144,2.101-2.3,2.942-3.599
			C197.079,181.445,197.571,180.221,196.882,179.532z"/>
		<path style="fill:#CB4F4F;" d="M209.319,178.282c-0.278-0.818-1.165-1-1.807-0.477c-1.32,1.076-2.368,2.44-3.374,3.806
			l-3.235,4.396c-1.043,1.418-2.031,2.876-3.032,4.324c-0.532,0.769-1.026,1.556-1.518,2.351c-0.447,0.721-0.873,1.384-0.867,2.261
			c0.002,0.327,0.317,0.564,0.632,0.481c0.843-0.222,1.373-0.806,1.948-1.421c0.638-0.683,1.269-1.364,1.872-2.078
			c1.242-1.471,2.49-2.936,3.69-4.443c1.167-1.466,2.341-2.927,3.501-4.399C208.071,181.888,209.885,179.951,209.319,178.282z"/>
		<path style="fill:#CB4F4F;" d="M215.755,183.708c-0.052-0.407-0.326-0.834-0.802-0.802c-0.999,0.066-2.102,0.645-2.788,1.353
			c-0.315,0.326-0.625,0.659-0.936,0.989c-0.239,0.254-0.442,0.536-0.653,0.813c-0.029,0.038-0.26,0.361-0.12,0.157
			c0.141-0.205-0.122,0.157-0.125,0.161c-0.613,0.788-1.239,1.558-1.806,2.381c-0.492,0.713-1.053,1.392-1.24,2.237
			c-0.075,0.175-0.108,0.356-0.028,0.551c0.12,0.295,0.376,0.582,0.731,0.557c0.992-0.071,1.744-0.7,2.512-1.273
			c0.819-0.611,1.573-1.268,2.318-1.966c0.675-0.633,1.261-1.292,1.834-2.018c0.397-0.503,0.804-1.099,0.941-1.74
			C215.683,184.682,215.81,184.136,215.755,183.708z"/>
	</g>
	<g>
		<path style="fill:#DFA0AE;" d="M406.633,206.737c-5.788-3.767-11.98,0.137-14.5,5.749c-0.801,1.784-1.297,3.634-1.644,5.524
			c-0.129-0.104-0.26-0.209-0.387-0.309c-1.977-1.575-4.108-2.932-6.566-3.602c-4.086-1.112-8.881,0.165-11.523,3.583
			c-3.443,4.454-0.999,9.493,1.97,13.454c2.831,3.777,6.318,6.925,10.315,9.426c16.52,10.339,30.028-0.431,29.393-19.677
			C413.512,215.51,411.284,209.764,406.633,206.737z"/>
		<path style="fill:#DFA0AE;" d="M124.251,304.799c-4.335-3.626-9.748-1.057-12.343,3.257c-0.825,1.372-1.408,2.826-1.875,4.328
			c-0.095-0.097-0.191-0.195-0.284-0.289c-1.453-1.472-3.052-2.783-4.984-3.567c-3.211-1.302-7.233-0.732-9.712,1.788
			c-3.232,3.284-1.738,7.616,0.288,11.125c1.932,3.345,4.458,6.243,7.462,8.666c12.415,10.012,24.442,2.578,25.803-13.122
			C128.985,312.599,127.735,307.712,124.251,304.799z"/>
		<path style="fill:#DFA0AE;" d="M398.474,266.224c-1.773-4.051-6.459-4.138-9.781-2.021c-1.056,0.673-1.971,1.489-2.822,2.378
			c-0.033-0.101-0.066-0.203-0.098-0.302c-0.504-1.538-1.167-3.014-2.248-4.236c-1.796-2.031-4.811-3.034-7.426-2.134
			c-3.408,1.173-3.872,4.729-3.676,7.893c0.187,3.016,0.946,5.927,2.206,8.671c5.206,11.341,16.221,10.326,22.648-0.197
			C399.071,273.338,399.898,269.479,398.474,266.224z"/>
		<path style="fill:#DFA0AE;" d="M308.74,54.642c-1.247-2.85-4.544-2.911-6.881-1.422c-0.743,0.473-1.387,1.047-1.985,1.673
			c-0.023-0.071-0.046-0.143-0.069-0.212c-0.355-1.082-0.821-2.12-1.581-2.98c-1.263-1.429-3.384-2.134-5.224-1.501
			c-2.398,0.825-2.724,3.327-2.586,5.552c0.132,2.122,0.666,4.17,1.552,6.1c3.662,7.978,11.411,7.264,15.932-0.138
			C309.16,59.647,309.742,56.932,308.74,54.642z"/>
		<path style="fill:#DFA0AE;" d="M111.558,360.339c-1.247-2.85-4.544-2.911-6.881-1.422c-0.743,0.473-1.387,1.047-1.985,1.673
			c-0.023-0.071-0.046-0.143-0.069-0.212c-0.355-1.082-0.821-2.12-1.581-2.98c-1.263-1.429-3.384-2.134-5.224-1.501
			c-2.398,0.825-2.724,3.327-2.586,5.552c0.132,2.122,0.666,4.17,1.552,6.1c3.662,7.978,11.411,7.264,15.932-0.138
			C111.978,365.344,112.56,362.629,111.558,360.339z"/>
		<path style="fill:#DFA0AE;" d="M136.448,120.654c-1.773-4.051-6.459-4.138-9.781-2.021c-1.056,0.673-1.971,1.489-2.822,2.378
			c-0.033-0.101-0.066-0.203-0.098-0.302c-0.504-1.538-1.167-3.013-2.248-4.236c-1.796-2.031-4.811-3.034-7.426-2.134
			c-3.408,1.173-3.872,4.729-3.676,7.893c0.187,3.016,0.946,5.927,2.206,8.671c5.206,11.341,16.221,10.326,22.648-0.196
			C137.045,127.768,137.872,123.909,136.448,120.654z"/>
	</g>
</g>
</svg>
